<?xml version="1.0" encoding="UTF-8"?>
<svg xmlns="http://www.w3.org/2000/svg" xmlns:xlink="http://www.w3.org/1999/xlink" contentScriptType="text/ecmascript" width="37.5pt" zoomAndPan="magnify" contentStyleType="text/css"
     viewBox="0 0 37.5 37.499999" height="37.499999pt" preserveAspectRatio="xMidYMid meet" version="1.2">
    <defs>
        <g/>
        <clipPath xml:id="clip1" id="clip1">
            <path d="M 1.34375 10.375 L 35.84375 10.375 L 35.84375 26.875 L 1.34375 26.875 Z M 1.34375 10.375 "/>
        </clipPath>
        <clipPath xml:id="clip2" id="clip2">
            <path d="M 30 10.375 L 31 10.375 L 31 12 L 30 12 Z M 30 10.375 "/>
        </clipPath>
        <clipPath xml:id="clip3" id="clip3">
            <path d="M 6 10.375 L 30 10.375 L 30 12 L 6 12 Z M 6 10.375 "/>
        </clipPath>
        <clipPath xml:id="clip4" id="clip4">
            <path d="M 6 10.375 L 7 10.375 L 7 12 L 6 12 Z M 6 10.375 "/>
        </clipPath>
        <clipPath xml:id="clip5" id="clip5">
            <path d="M 6 25 L 7 25 L 7 26.875 L 6 26.875 Z M 6 25 "/>
        </clipPath>
        <clipPath xml:id="clip6" id="clip6">
            <path d="M 6 26 L 7 26 L 7 26.875 L 6 26.875 Z M 6 26 "/>
        </clipPath>
        <clipPath xml:id="clip7" id="clip7">
            <path d="M 6 26 L 31 26 L 31 26.875 L 6 26.875 Z M 6 26 "/>
        </clipPath>
        <clipPath xml:id="clip8" id="clip8">
            <path d="M 30 26 L 31 26 L 31 26.875 L 30 26.875 Z M 30 26 "/>
        </clipPath>
    </defs>
    <g xml:id="surface1" id="surface1">
        <g clip-rule="nonzero" clip-path="url(#clip1)">
            <path style=" stroke:none;fill-rule:nonzero;fill:rgb(97.648621%,36.079407%,27.839661%);fill-opacity:1;"
                  d="M 35.738281 18.75 C 35.738281 16.300781 34.351562 14.253906 32.519531 13.796875 L 32.519531 11.746094 L 31.066406 11.746094 L 31.066406 10.429688 L 5.453125 10.429688 L 5.453125 11.746094 L 3.894531 11.746094 L 3.894531 13.96875 C 2.460938 14.734375 1.457031 16.527344 1.457031 18.621094 C 1.457031 20.714844 2.460938 22.507812 3.894531 23.273438 L 3.894531 25.242188 L 5.453125 25.242188 L 5.453125 26.8125 L 31.066406 26.8125 L 31.066406 25.242188 L 32.519531 25.242188 L 32.519531 23.707031 C 34.351562 23.25 35.738281 21.203125 35.738281 18.75 "/>
            <path style="fill:none;stroke-width:16.188999;stroke-linecap:butt;stroke-linejoin:miter;stroke:rgb(31.369019%,47.44873%,49.798584%);stroke-opacity:1;stroke-miterlimit:10;"
                  d="M 4883.436507 2485.844288 C 4883.436507 2828.883364 4690.435905 3115.569927 4435.457646 3179.582004 L 4435.457646 3466.815679 L 4233.214762 3466.815679 L 4233.214762 3651.192344 L 668.412103 3651.192344 L 668.412103 3466.815679 L 451.4903 3466.815679 L 451.4903 3155.509086 C 251.965735 3048.275181 112.244173 2797.150881 112.244173 2503.898976 C 112.244173 2210.647071 251.965735 1959.522772 451.4903 1852.288866 L 451.4903 1576.544538 L 668.412103 1576.544538 L 668.412103 1356.605609 L 4233.214762 1356.605609 L 4233.214762 1576.544538 L 4435.457646 1576.544538 L 4435.457646 1791.559461 C 4690.435905 1855.571537 4883.436507 2142.258101 4883.436507 2485.844288 Z M 4883.436507 2485.844288 "
                  transform="matrix(0.00718505,0,0,-0.00713977,0.650551,36.498347)"/>
        </g>
        <path style="fill:none;stroke-width:10.793;stroke-linecap:butt;stroke-linejoin:miter;stroke:rgb(31.369019%,47.44873%,49.798584%);stroke-opacity:1;stroke-miterlimit:10;"
              d="M 4331.617886 3130.889057 C 4326.724913 3132.530392 4321.288276 3133.624616 4316.395303 3135.265951 L 4316.395303 3151.132192 "
              transform="matrix(0.00718505,0,0,-0.00713977,0.650551,36.498347)"/>
        <path style=" stroke:none;fill-rule:nonzero;fill:rgb(31.369019%,47.44873%,49.798584%);fill-opacity:1;"
              d="M 31.703125 13.773438 L 31.703125 13.640625 L 31.625 13.640625 L 31.625 13.773438 M 31.703125 13.527344 L 31.703125 13.398438 L 31.625 13.398438 L 31.625 13.527344 M 31.703125 13.285156 L 31.703125 13.15625 L 31.625 13.15625 L 31.625 13.285156 M 31.703125 13.042969 L 31.703125 12.914062 L 31.625 12.914062 L 31.625 13.042969 M 31.703125 12.800781 L 31.703125 12.671875 L 31.625 12.671875 L 31.625 12.800781 M 31.703125 12.554688 L 31.703125 12.429688 L 31.625 12.429688 L 31.625 12.554688 "/>
        <path style="fill:none;stroke-width:10.793;stroke-linecap:butt;stroke-linejoin:miter;stroke:rgb(31.369019%,47.44873%,49.798584%);stroke-opacity:1;stroke-miterlimit:10;"
              d="M 4316.395303 3386.937362 L 4316.395303 3403.350715 L 4300.085393 3403.350715 " transform="matrix(0.00718505,0,0,-0.00713977,0.650551,36.498347)"/>
        <path style=" stroke:none;fill-rule:nonzero;fill:rgb(31.369019%,47.44873%,49.798584%);fill-opacity:1;"
              d="M 31.332031 12.160156 L 31.210938 12.160156 L 31.210938 12.238281 L 31.332031 12.238281 M 31.105469 12.160156 L 30.984375 12.160156 L 30.984375 12.238281 L 31.105469 12.238281 M 30.878906 12.160156 L 30.757812 12.160156 L 30.757812 12.238281 L 30.878906 12.238281 M 30.648438 12.160156 L 30.53125 12.160156 L 30.53125 12.238281 L 30.648438 12.238281 "/>
        <path style="fill:none;stroke-width:10.793;stroke-linecap:butt;stroke-linejoin:miter;stroke:rgb(31.369019%,47.44873%,49.798584%);stroke-opacity:1;stroke-miterlimit:10;"
              d="M 4143.510257 3403.350715 L 4127.744011 3403.350715 L 4127.744011 3419.216956 " transform="matrix(0.00718505,0,0,-0.00713977,0.650551,36.498347)"/>
        <path style=" stroke:none;fill-rule:nonzero;fill:rgb(31.369019%,47.44873%,49.798584%);fill-opacity:1;"
              d="M 30.34375 11.894531 L 30.34375 11.785156 L 30.269531 11.785156 L 30.269531 11.894531 M 30.34375 11.691406 L 30.34375 11.582031 L 30.269531 11.582031 L 30.269531 11.691406 M 30.34375 11.488281 L 30.34375 11.378906 L 30.269531 11.378906 L 30.269531 11.488281 M 30.34375 11.285156 L 30.34375 11.175781 L 30.269531 11.175781 L 30.269531 11.285156 "/>
        <g clip-rule="nonzero" clip-path="url(#clip2)">
            <path style="fill:none;stroke-width:10.793;stroke-linecap:butt;stroke-linejoin:miter;stroke:rgb(31.369019%,47.44873%,49.798584%);stroke-opacity:1;stroke-miterlimit:10;"
                  d="M 4127.744011 3559.824679 L 4127.744011 3575.69092 L 4111.434101 3575.69092 " transform="matrix(0.00718505,0,0,-0.00713977,0.650551,36.498347)"/>
        </g>
        <g clip-rule="nonzero" clip-path="url(#clip3)">
            <path style=" stroke:none;fill-rule:nonzero;fill:rgb(31.369019%,47.44873%,49.798584%);fill-opacity:1;"
                  d="M 29.988281 10.929688 L 29.871094 10.929688 L 29.871094 11.003906 L 29.988281 11.003906 M 29.769531 10.929688 L 29.652344 10.929688 L 29.652344 11.003906 L 29.769531 11.003906 M 29.550781 10.929688 L 29.4375 10.929688 L 29.4375 11.003906 L 29.550781 11.003906 M 29.332031 10.929688 L 29.21875 10.929688 L 29.21875 11.003906 L 29.332031 11.003906 M 29.117188 10.929688 L 29 10.929688 L 29 11.003906 L 29.117188 11.003906 M 28.898438 10.929688 L 28.78125 10.929688 L 28.78125 11.003906 L 28.898438 11.003906 M 28.679688 10.929688 L 28.566406 10.929688 L 28.566406 11.003906 L 28.679688 11.003906 M 28.460938 10.929688 L 28.347656 10.929688 L 28.347656 11.003906 L 28.460938 11.003906 M 28.246094 10.929688 L 28.128906 10.929688 L 28.128906 11.003906 L 28.246094 11.003906 M 28.027344 10.929688 L 27.910156 10.929688 L 27.910156 11.003906 L 28.027344 11.003906 M 27.808594 10.929688 L 27.691406 10.929688 L 27.691406 11.003906 L 27.808594 11.003906 M 27.589844 10.929688 L 27.476562 10.929688 L 27.476562 11.003906 L 27.589844 11.003906 M 27.375 10.929688 L 27.257812 10.929688 L 27.257812 11.003906 L 27.375 11.003906 M 27.15625 10.929688 L 27.039062 10.929688 L 27.039062 11.003906 L 27.15625 11.003906 M 26.9375 10.929688 L 26.820312 10.929688 L 26.820312 11.003906 L 26.9375 11.003906 M 26.71875 10.929688 L 26.605469 10.929688 L 26.605469 11.003906 L 26.71875 11.003906 M 26.503906 10.929688 L 26.386719 10.929688 L 26.386719 11.003906 L 26.503906 11.003906 M 26.285156 10.929688 L 26.167969 10.929688 L 26.167969 11.003906 L 26.285156 11.003906 M 26.066406 10.929688 L 25.949219 10.929688 L 25.949219 11.003906 L 26.066406 11.003906 M 25.847656 10.929688 L 25.734375 10.929688 L 25.734375 11.003906 L 25.847656 11.003906 M 25.632812 10.929688 L 25.515625 10.929688 L 25.515625 11.003906 L 25.632812 11.003906 M 25.414062 10.929688 L 25.296875 10.929688 L 25.296875 11.003906 L 25.414062 11.003906 M 25.195312 10.929688 L 25.078125 10.929688 L 25.078125 11.003906 L 25.195312 11.003906 M 24.976562 10.929688 L 24.863281 10.929688 L 24.863281 11.003906 L 24.976562 11.003906 M 24.761719 10.929688 L 24.644531 10.929688 L 24.644531 11.003906 L 24.761719 11.003906 M 24.542969 10.929688 L 24.425781 10.929688 L 24.425781 11.003906 L 24.542969 11.003906 M 24.324219 10.929688 L 24.207031 10.929688 L 24.207031 11.003906 L 24.324219 11.003906 M 24.105469 10.929688 L 23.992188 10.929688 L 23.992188 11.003906 L 24.105469 11.003906 M 23.886719 10.929688 L 23.773438 10.929688 L 23.773438 11.003906 L 23.886719 11.003906 M 23.671875 10.929688 L 23.554688 10.929688 L 23.554688 11.003906 L 23.671875 11.003906 M 23.453125 10.929688 L 23.335938 10.929688 L 23.335938 11.003906 L 23.453125 11.003906 M 23.234375 10.929688 L 23.121094 10.929688 L 23.121094 11.003906 L 23.234375 11.003906 M 23.015625 10.929688 L 22.902344 10.929688 L 22.902344 11.003906 L 23.015625 11.003906 M 22.800781 10.929688 L 22.683594 10.929688 L 22.683594 11.003906 L 22.800781 11.003906 M 22.582031 10.929688 L 22.464844 10.929688 L 22.464844 11.003906 L 22.582031 11.003906 M 22.363281 10.929688 L 22.25 10.929688 L 22.25 11.003906 L 22.363281 11.003906 M 22.144531 10.929688 L 22.03125 10.929688 L 22.03125 11.003906 L 22.144531 11.003906 M 21.929688 10.929688 L 21.8125 10.929688 L 21.8125 11.003906 L 21.929688 11.003906 M 21.710938 10.929688 L 21.59375 10.929688 L 21.59375 11.003906 L 21.710938 11.003906 M 21.492188 10.929688 L 21.375 10.929688 L 21.375 11.003906 L 21.492188 11.003906 M 21.273438 10.929688 L 21.160156 10.929688 L 21.160156 11.003906 L 21.273438 11.003906 M 21.058594 10.929688 L 20.941406 10.929688 L 20.941406 11.003906 L 21.058594 11.003906 M 20.839844 10.929688 L 20.722656 10.929688 L 20.722656 11.003906 L 20.839844 11.003906 M 20.621094 10.929688 L 20.503906 10.929688 L 20.503906 11.003906 L 20.621094 11.003906 M 20.402344 10.929688 L 20.289062 10.929688 L 20.289062 11.003906 L 20.402344 11.003906 M 20.1875 10.929688 L 20.070312 10.929688 L 20.070312 11.003906 L 20.1875 11.003906 M 19.96875 10.929688 L 19.851562 10.929688 L 19.851562 11.003906 L 19.96875 11.003906 M 19.75 10.929688 L 19.632812 10.929688 L 19.632812 11.003906 L 19.75 11.003906 M 19.53125 10.929688 L 19.417969 10.929688 L 19.417969 11.003906 L 19.53125 11.003906 M 19.316406 10.929688 L 19.199219 10.929688 L 19.199219 11.003906 L 19.316406 11.003906 M 19.097656 10.929688 L 18.980469 10.929688 L 18.980469 11.003906 L 19.097656 11.003906 M 18.878906 10.929688 L 18.761719 10.929688 L 18.761719 11.003906 L 18.878906 11.003906 M 18.660156 10.929688 L 18.546875 10.929688 L 18.546875 11.003906 L 18.660156 11.003906 M 18.445312 10.929688 L 18.328125 10.929688 L 18.328125 11.003906 L 18.445312 11.003906 M 18.226562 10.929688 L 18.109375 10.929688 L 18.109375 11.003906 L 18.226562 11.003906 M 18.007812 10.929688 L 17.890625 10.929688 L 17.890625 11.003906 L 18.007812 11.003906 M 17.789062 10.929688 L 17.675781 10.929688 L 17.675781 11.003906 L 17.789062 11.003906 M 17.570312 10.929688 L 17.457031 10.929688 L 17.457031 11.003906 L 17.570312 11.003906 M 17.355469 10.929688 L 17.238281 10.929688 L 17.238281 11.003906 L 17.355469 11.003906 M 17.136719 10.929688 L 17.019531 10.929688 L 17.019531 11.003906 L 17.136719 11.003906 M 16.917969 10.929688 L 16.804688 10.929688 L 16.804688 11.003906 L 16.917969 11.003906 M 16.699219 10.929688 L 16.585938 10.929688 L 16.585938 11.003906 L 16.699219 11.003906 M 16.484375 10.929688 L 16.367188 10.929688 L 16.367188 11.003906 L 16.484375 11.003906 M 16.265625 10.929688 L 16.148438 10.929688 L 16.148438 11.003906 L 16.265625 11.003906 M 16.046875 10.929688 L 15.933594 10.929688 L 15.933594 11.003906 L 16.046875 11.003906 M 15.828125 10.929688 L 15.714844 10.929688 L 15.714844 11.003906 L 15.828125 11.003906 M 15.613281 10.929688 L 15.496094 10.929688 L 15.496094 11.003906 L 15.613281 11.003906 M 15.394531 10.929688 L 15.277344 10.929688 L 15.277344 11.003906 L 15.394531 11.003906 M 15.175781 10.929688 L 15.058594 10.929688 L 15.058594 11.003906 L 15.175781 11.003906 M 14.957031 10.929688 L 14.84375 10.929688 L 14.84375 11.003906 L 14.957031 11.003906 M 14.742188 10.929688 L 14.625 10.929688 L 14.625 11.003906 L 14.742188 11.003906 M 14.523438 10.929688 L 14.40625 10.929688 L 14.40625 11.003906 L 14.523438 11.003906 M 14.304688 10.929688 L 14.1875 10.929688 L 14.1875 11.003906 L 14.304688 11.003906 M 14.085938 10.929688 L 13.972656 10.929688 L 13.972656 11.003906 L 14.085938 11.003906 M 13.871094 10.929688 L 13.753906 10.929688 L 13.753906 11.003906 L 13.871094 11.003906 M 13.652344 10.929688 L 13.535156 10.929688 L 13.535156 11.003906 L 13.652344 11.003906 M 13.433594 10.929688 L 13.316406 10.929688 L 13.316406 11.003906 L 13.433594 11.003906 M 13.214844 10.929688 L 13.101562 10.929688 L 13.101562 11.003906 L 13.214844 11.003906 M 13 10.929688 L 12.882812 10.929688 L 12.882812 11.003906 L 13 11.003906 M 12.78125 10.929688 L 12.664062 10.929688 L 12.664062 11.003906 L 12.78125 11.003906 M 12.5625 10.929688 L 12.445312 10.929688 L 12.445312 11.003906 L 12.5625 11.003906 M 12.34375 10.929688 L 12.230469 10.929688 L 12.230469 11.003906 L 12.34375 11.003906 M 12.128906 10.929688 L 12.011719 10.929688 L 12.011719 11.003906 L 12.128906 11.003906 M 11.910156 10.929688 L 11.792969 10.929688 L 11.792969 11.003906 L 11.910156 11.003906 M 11.691406 10.929688 L 11.574219 10.929688 L 11.574219 11.003906 L 11.691406 11.003906 M 11.472656 10.929688 L 11.359375 10.929688 L 11.359375 11.003906 L 11.472656 11.003906 M 11.253906 10.929688 L 11.140625 10.929688 L 11.140625 11.003906 L 11.253906 11.003906 M 11.039062 10.929688 L 10.921875 10.929688 L 10.921875 11.003906 L 11.039062 11.003906 M 10.820312 10.929688 L 10.703125 10.929688 L 10.703125 11.003906 L 10.820312 11.003906 M 10.601562 10.929688 L 10.488281 10.929688 L 10.488281 11.003906 L 10.601562 11.003906 M 10.382812 10.929688 L 10.269531 10.929688 L 10.269531 11.003906 L 10.382812 11.003906 M 10.167969 10.929688 L 10.050781 10.929688 L 10.050781 11.003906 L 10.167969 11.003906 M 9.949219 10.929688 L 9.832031 10.929688 L 9.832031 11.003906 L 9.949219 11.003906 M 9.730469 10.929688 L 9.617188 10.929688 L 9.617188 11.003906 L 9.730469 11.003906 M 9.511719 10.929688 L 9.398438 10.929688 L 9.398438 11.003906 L 9.511719 11.003906 M 9.296875 10.929688 L 9.179688 10.929688 L 9.179688 11.003906 L 9.296875 11.003906 M 9.078125 10.929688 L 8.960938 10.929688 L 8.960938 11.003906 L 9.078125 11.003906 M 8.859375 10.929688 L 8.746094 10.929688 L 8.746094 11.003906 L 8.859375 11.003906 M 8.640625 10.929688 L 8.527344 10.929688 L 8.527344 11.003906 L 8.640625 11.003906 M 8.425781 10.929688 L 8.308594 10.929688 L 8.308594 11.003906 L 8.425781 11.003906 M 8.207031 10.929688 L 8.089844 10.929688 L 8.089844 11.003906 L 8.207031 11.003906 M 7.988281 10.929688 L 7.871094 10.929688 L 7.871094 11.003906 L 7.988281 11.003906 M 7.769531 10.929688 L 7.65625 10.929688 L 7.65625 11.003906 L 7.769531 11.003906 M 7.554688 10.929688 L 7.4375 10.929688 L 7.4375 11.003906 L 7.554688 11.003906 M 7.335938 10.929688 L 7.21875 10.929688 L 7.21875 11.003906 L 7.335938 11.003906 M 7.117188 10.929688 L 7 10.929688 L 7 11.003906 L 7.117188 11.003906 M 6.898438 10.929688 L 6.785156 10.929688 L 6.785156 11.003906 L 6.898438 11.003906 M 6.683594 10.929688 L 6.59375 10.929688 L 6.59375 11.003906 L 6.683594 11.003906 "/>
        </g>
        <g clip-rule="nonzero" clip-path="url(#clip4)">
            <path style="fill:none;stroke-width:10.793;stroke-linecap:butt;stroke-linejoin:miter;stroke:rgb(31.369019%,47.44873%,49.798584%);stroke-opacity:1;stroke-miterlimit:10;"
                  d="M 813.026638 3575.69092 L 797.260392 3575.69092 L 797.260392 3559.824679 " transform="matrix(0.00718505,0,0,-0.00713977,0.650551,36.498347)"/>
        </g>
        <path style=" stroke:none;fill-rule:nonzero;fill:rgb(31.369019%,47.44873%,49.798584%);fill-opacity:1;"
              d="M 6.339844 11.273438 L 6.339844 11.378906 L 6.414062 11.378906 L 6.414062 11.273438 M 6.339844 11.476562 L 6.339844 11.582031 L 6.414062 11.582031 L 6.414062 11.476562 M 6.339844 11.679688 L 6.339844 11.785156 L 6.414062 11.785156 L 6.414062 11.679688 M 6.339844 11.882812 L 6.339844 11.988281 L 6.414062 11.988281 L 6.414062 11.882812 "/>
        <path style="fill:none;stroke-width:10.793;stroke-linecap:butt;stroke-linejoin:miter;stroke:rgb(31.369019%,47.44873%,49.798584%);stroke-opacity:1;stroke-miterlimit:10;"
              d="M 797.260392 3419.216956 L 797.260392 3403.350715 L 780.950482 3403.350715 " transform="matrix(0.00718505,0,0,-0.00713977,0.650551,36.498347)"/>
        <path style=" stroke:none;fill-rule:nonzero;fill:rgb(31.369019%,47.44873%,49.798584%);fill-opacity:1;"
              d="M 6.027344 12.160156 L 5.898438 12.160156 L 5.898438 12.238281 L 6.027344 12.238281 M 5.78125 12.160156 L 5.648438 12.160156 L 5.648438 12.238281 L 5.78125 12.238281 M 5.535156 12.160156 L 5.402344 12.160156 L 5.402344 12.238281 L 5.535156 12.238281 M 5.285156 12.160156 L 5.15625 12.160156 L 5.15625 12.238281 L 5.285156 12.238281 "/>
        <path style="fill:none;stroke-width:10.793;stroke-linecap:butt;stroke-linejoin:miter;stroke:rgb(31.369019%,47.44873%,49.798584%);stroke-opacity:1;stroke-miterlimit:10;"
              d="M 610.783754 3403.350715 L 594.473844 3403.350715 L 594.473844 3386.937362 " transform="matrix(0.00718505,0,0,-0.00713977,0.650551,36.498347)"/>
        <path style=" stroke:none;fill-rule:nonzero;fill:rgb(31.369019%,47.44873%,49.798584%);fill-opacity:1;"
              d="M 4.882812 12.507812 L 4.882812 12.617188 L 4.960938 12.617188 L 4.960938 12.507812 M 4.882812 12.714844 L 4.882812 12.824219 L 4.960938 12.824219 L 4.960938 12.714844 M 4.882812 12.921875 L 4.882812 13.03125 L 4.960938 13.03125 L 4.960938 12.921875 M 4.882812 13.128906 L 4.882812 13.238281 L 4.960938 13.238281 L 4.960938 13.128906 M 4.882812 13.332031 L 4.882812 13.445312 L 4.960938 13.445312 L 4.960938 13.332031 M 4.882812 13.539062 L 4.882812 13.648438 L 4.960938 13.648438 L 4.960938 13.539062 M 4.882812 13.746094 L 4.882812 13.855469 L 4.960938 13.855469 L 4.960938 13.746094 M 4.882812 13.953125 L 4.882812 14.0625 L 4.960938 14.0625 L 4.960938 13.953125 "/>
        <path style="fill:none;stroke-width:10.793;stroke-linecap:butt;stroke-linejoin:miter;stroke:rgb(31.369019%,47.44873%,49.798584%);stroke-opacity:1;stroke-miterlimit:10;"
              d="M 594.473844 3129.247722 L 594.473844 3112.834369 C 590.124535 3110.09881 585.231562 3107.910363 580.882253 3105.174804 "
              transform="matrix(0.00718505,0,0,-0.00713977,0.650551,36.498347)"/>
        <path style=" stroke:none;fill-rule:nonzero;fill:rgb(31.369019%,47.44873%,49.798584%);fill-opacity:1;"
              d="M 4.628906 14.402344 C 4.597656 14.425781 4.566406 14.445312 4.535156 14.46875 L 4.578125 14.53125 C 4.609375 14.507812 4.640625 14.488281 4.671875 14.46875 Z M 4.453125 14.527344 C 4.421875 14.550781 4.390625 14.574219 4.359375 14.597656 L 4.410156 14.660156 C 4.4375 14.636719 4.46875 14.613281 4.5 14.589844 Z M 4.28125 14.664062 C 4.253906 14.6875 4.222656 14.714844 4.195312 14.738281 L 4.246094 14.796875 C 4.273438 14.769531 4.304688 14.746094 4.332031 14.722656 Z M 4.121094 14.808594 C 4.09375 14.835938 4.066406 14.859375 4.039062 14.886719 L 4.09375 14.941406 C 4.121094 14.917969 4.148438 14.890625 4.175781 14.863281 Z M 3.964844 14.960938 C 3.941406 14.988281 3.914062 15.015625 3.886719 15.046875 L 3.945312 15.097656 C 3.972656 15.070312 3.996094 15.042969 4.023438 15.015625 Z M 3.820312 15.121094 C 3.796875 15.152344 3.769531 15.179688 3.746094 15.210938 L 3.808594 15.257812 C 3.832031 15.230469 3.855469 15.199219 3.878906 15.171875 Z M 3.683594 15.289062 C 3.660156 15.320312 3.636719 15.351562 3.613281 15.382812 L 3.675781 15.425781 C 3.699219 15.398438 3.722656 15.367188 3.746094 15.335938 Z M 3.554688 15.464844 C 3.53125 15.496094 3.511719 15.527344 3.488281 15.558594 L 3.554688 15.601562 C 3.574219 15.570312 3.597656 15.539062 3.617188 15.507812 Z M 3.433594 15.644531 C 3.414062 15.675781 3.394531 15.707031 3.375 15.742188 L 3.441406 15.78125 C 3.460938 15.75 3.480469 15.714844 3.5 15.683594 Z M 3.324219 15.828125 C 3.304688 15.863281 3.285156 15.894531 3.265625 15.929688 L 3.335938 15.964844 C 3.351562 15.933594 3.371094 15.898438 3.390625 15.867188 Z M 3.21875 16.019531 C 3.199219 16.050781 3.183594 16.085938 3.167969 16.121094 L 3.238281 16.15625 C 3.253906 16.121094 3.269531 16.085938 3.289062 16.054688 Z M 3.125 16.210938 C 3.105469 16.246094 3.089844 16.28125 3.074219 16.316406 L 3.148438 16.347656 C 3.164062 16.3125 3.179688 16.277344 3.195312 16.246094 Z M 3.035156 16.410156 C 3.019531 16.445312 3.007812 16.480469 2.992188 16.515625 L 3.066406 16.542969 C 3.078125 16.507812 3.09375 16.472656 3.109375 16.441406 Z M 2.957031 16.609375 C 2.945312 16.648438 2.929688 16.683594 2.917969 16.71875 L 2.992188 16.742188 C 3.003906 16.707031 3.015625 16.671875 3.03125 16.636719 Z M 2.886719 16.816406 C 2.875 16.851562 2.863281 16.886719 2.851562 16.925781 L 2.925781 16.945312 C 2.9375 16.910156 2.949219 16.875 2.960938 16.839844 Z M 2.824219 17.019531 C 2.8125 17.058594 2.804688 17.09375 2.792969 17.132812 L 2.867188 17.152344 C 2.878906 17.113281 2.886719 17.078125 2.898438 17.042969 Z M 2.769531 17.230469 C 2.757812 17.265625 2.75 17.304688 2.742188 17.34375 L 2.820312 17.359375 C 2.828125 17.320312 2.835938 17.285156 2.84375 17.246094 Z M 2.722656 17.441406 C 2.714844 17.476562 2.707031 17.515625 2.699219 17.554688 L 2.777344 17.566406 C 2.785156 17.53125 2.789062 17.492188 2.796875 17.457031 Z M 2.683594 17.652344 C 2.675781 17.691406 2.671875 17.726562 2.664062 17.765625 L 2.742188 17.777344 C 2.746094 17.738281 2.753906 17.703125 2.757812 17.664062 Z M 2.652344 17.867188 C 2.648438 17.902344 2.644531 17.941406 2.640625 17.980469 L 2.714844 17.988281 C 2.71875 17.949219 2.722656 17.914062 2.730469 17.875 Z M 2.628906 18.082031 C 2.625 18.117188 2.621094 18.15625 2.621094 18.195312 L 2.695312 18.199219 C 2.699219 18.164062 2.703125 18.125 2.707031 18.085938 Z M 2.613281 18.296875 L 2.609375 18.410156 L 2.6875 18.414062 L 2.691406 18.300781 Z M 2.605469 18.511719 L 2.605469 18.625 L 2.683594 18.625 L 2.683594 18.511719 Z M 2.605469 18.726562 L 2.609375 18.84375 L 2.6875 18.839844 L 2.683594 18.726562 Z M 2.613281 18.941406 C 2.617188 18.980469 2.617188 19.019531 2.621094 19.058594 L 2.699219 19.050781 C 2.695312 19.015625 2.691406 18.976562 2.691406 18.9375 Z M 2.628906 19.160156 C 2.632812 19.195312 2.636719 19.234375 2.640625 19.273438 L 2.71875 19.265625 C 2.710938 19.226562 2.710938 19.1875 2.707031 19.152344 Z M 2.652344 19.371094 C 2.65625 19.410156 2.660156 19.449219 2.667969 19.488281 L 2.742188 19.476562 C 2.738281 19.4375 2.734375 19.402344 2.730469 19.363281 Z M 2.683594 19.585938 C 2.6875 19.625 2.695312 19.660156 2.703125 19.699219 L 2.777344 19.683594 C 2.773438 19.648438 2.765625 19.609375 2.757812 19.574219 Z M 2.722656 19.796875 C 2.730469 19.835938 2.738281 19.875 2.746094 19.910156 L 2.820312 19.894531 C 2.8125 19.855469 2.804688 19.820312 2.796875 19.785156 Z M 2.769531 20.007812 C 2.777344 20.046875 2.785156 20.082031 2.796875 20.121094 L 2.871094 20.101562 C 2.859375 20.0625 2.851562 20.027344 2.84375 19.992188 Z M 2.824219 20.21875 C 2.832031 20.253906 2.84375 20.292969 2.855469 20.328125 L 2.929688 20.304688 C 2.917969 20.269531 2.90625 20.234375 2.898438 20.195312 Z M 2.886719 20.425781 C 2.898438 20.460938 2.910156 20.496094 2.921875 20.53125 L 2.996094 20.507812 C 2.984375 20.472656 2.96875 20.4375 2.957031 20.402344 Z M 2.957031 20.628906 C 2.96875 20.664062 2.984375 20.699219 2.996094 20.734375 L 3.070312 20.707031 C 3.054688 20.671875 3.042969 20.636719 3.027344 20.601562 Z M 3.035156 20.828125 C 3.050781 20.863281 3.066406 20.898438 3.078125 20.933594 L 3.152344 20.902344 C 3.136719 20.871094 3.121094 20.835938 3.105469 20.800781 Z M 3.121094 21.027344 C 3.136719 21.0625 3.15625 21.097656 3.171875 21.128906 L 3.242188 21.097656 C 3.222656 21.0625 3.207031 21.027344 3.191406 20.996094 Z M 3.21875 21.222656 C 3.234375 21.253906 3.253906 21.289062 3.269531 21.324219 L 3.339844 21.285156 C 3.320312 21.253906 3.304688 21.21875 3.285156 21.1875 Z M 3.320312 21.410156 C 3.339844 21.445312 3.359375 21.476562 3.378906 21.507812 L 3.445312 21.46875 C 3.425781 21.4375 3.40625 21.40625 3.386719 21.371094 Z M 3.433594 21.597656 C 3.453125 21.628906 3.472656 21.660156 3.496094 21.691406 L 3.558594 21.648438 C 3.539062 21.617188 3.519531 21.585938 3.5 21.554688 Z M 3.554688 21.777344 C 3.574219 21.808594 3.597656 21.839844 3.621094 21.867188 L 3.683594 21.824219 C 3.660156 21.792969 3.636719 21.761719 3.617188 21.730469 Z M 3.683594 21.949219 C 3.707031 21.980469 3.730469 22.011719 3.753906 22.039062 L 3.8125 21.992188 C 3.789062 21.960938 3.765625 21.933594 3.742188 21.902344 Z M 3.820312 22.117188 C 3.84375 22.148438 3.871094 22.175781 3.894531 22.203125 L 3.953125 22.152344 C 3.925781 22.125 3.902344 22.097656 3.878906 22.066406 Z M 3.964844 22.277344 C 3.992188 22.304688 4.019531 22.332031 4.042969 22.359375 L 4.101562 22.304688 C 4.074219 22.28125 4.046875 22.253906 4.019531 22.226562 Z M 4.117188 22.429688 C 4.144531 22.457031 4.175781 22.484375 4.203125 22.507812 L 4.253906 22.453125 C 4.226562 22.425781 4.199219 22.402344 4.171875 22.375 Z M 4.28125 22.574219 C 4.308594 22.601562 4.339844 22.625 4.371094 22.648438 L 4.417969 22.589844 C 4.386719 22.566406 4.359375 22.542969 4.328125 22.515625 Z M 4.449219 22.710938 C 4.480469 22.734375 4.511719 22.757812 4.542969 22.78125 L 4.589844 22.714844 C 4.558594 22.695312 4.527344 22.671875 4.496094 22.648438 Z M 4.628906 22.835938 C 4.65625 22.855469 4.6875 22.875 4.714844 22.894531 L 4.757812 22.828125 C 4.726562 22.808594 4.699219 22.792969 4.671875 22.773438 Z M 4.628906 22.835938 "/>
        <path style="fill:none;stroke-width:10.793;stroke-linecap:butt;stroke-linejoin:miter;stroke:rgb(31.369019%,47.44873%,49.798584%);stroke-opacity:1;stroke-miterlimit:10;"
              d="M 580.882253 1902.623149 C 585.231562 1899.88759 590.124535 1897.699143 594.473844 1894.963584 L 594.473844 1879.097343 "
              transform="matrix(0.00718505,0,0,-0.00713977,0.650551,36.498347)"/>
        <path style=" stroke:none;fill-rule:nonzero;fill:rgb(31.369019%,47.44873%,49.798584%);fill-opacity:1;"
              d="M 4.882812 23.300781 L 4.882812 23.425781 L 4.960938 23.425781 L 4.960938 23.300781 M 4.882812 23.53125 L 4.882812 23.65625 L 4.960938 23.65625 L 4.960938 23.53125 M 4.882812 23.765625 L 4.882812 23.886719 L 4.960938 23.886719 L 4.960938 23.765625 M 4.882812 23.996094 L 4.882812 24.117188 L 4.960938 24.117188 L 4.960938 23.996094 M 4.882812 24.226562 L 4.882812 24.351562 L 4.960938 24.351562 L 4.960938 24.226562 M 4.882812 24.460938 L 4.882812 24.582031 L 4.960938 24.582031 L 4.960938 24.460938 "/>
        <path style="fill:none;stroke-width:10.793;stroke-linecap:butt;stroke-linejoin:miter;stroke:rgb(31.369019%,47.44873%,49.798584%);stroke-opacity:1;stroke-miterlimit:10;"
              d="M 594.473844 1653.687296 L 594.473844 1637.821055 L 610.783754 1637.821055 " transform="matrix(0.00718505,0,0,-0.00713977,0.650551,36.498347)"/>
        <path style=" stroke:none;fill-rule:nonzero;fill:rgb(31.369019%,47.44873%,49.798584%);fill-opacity:1;"
              d="M 5.269531 24.84375 L 5.402344 24.84375 L 5.402344 24.765625 L 5.269531 24.765625 M 5.519531 24.84375 L 5.652344 24.84375 L 5.652344 24.765625 L 5.519531 24.765625 M 5.765625 24.84375 L 5.898438 24.84375 L 5.898438 24.765625 L 5.765625 24.765625 M 6.015625 24.84375 L 6.144531 24.84375 L 6.144531 24.765625 L 6.015625 24.765625 "/>
        <path style="fill:none;stroke-width:10.793;stroke-linecap:butt;stroke-linejoin:miter;stroke:rgb(31.369019%,47.44873%,49.798584%);stroke-opacity:1;stroke-miterlimit:10;"
              d="M 780.950482 1637.821055 L 797.260392 1637.821055 L 797.260392 1621.407702 " transform="matrix(0.00718505,0,0,-0.00713977,0.650551,36.498347)"/>
        <g clip-rule="nonzero" clip-path="url(#clip5)">
            <path style=" stroke:none;fill-rule:nonzero;fill:rgb(31.369019%,47.44873%,49.798584%);fill-opacity:1;"
                  d="M 6.339844 25.15625 L 6.339844 25.289062 L 6.414062 25.289062 L 6.414062 25.15625 M 6.339844 25.40625 L 6.339844 25.539062 L 6.414062 25.539062 L 6.414062 25.40625 M 6.339844 25.65625 L 6.339844 25.792969 L 6.414062 25.792969 L 6.414062 25.65625 M 6.339844 25.910156 L 6.339844 26.042969 L 6.414062 26.042969 L 6.414062 25.910156 "/>
        </g>
        <g clip-rule="nonzero" clip-path="url(#clip6)">
            <path style="fill:none;stroke-width:10.793;stroke-linecap:butt;stroke-linejoin:miter;stroke:rgb(31.369019%,47.44873%,49.798584%);stroke-opacity:1;stroke-miterlimit:10;"
                  d="M 797.260392 1447.973273 L 797.260392 1432.107032 L 813.026638 1432.107032 " transform="matrix(0.00718505,0,0,-0.00713977,0.650551,36.498347)"/>
        </g>
        <g clip-rule="nonzero" clip-path="url(#clip7)">
            <path style=" stroke:none;fill-rule:nonzero;fill:rgb(31.369019%,47.44873%,49.798584%);fill-opacity:1;"
                  d="M 6.695312 26.3125 L 6.8125 26.3125 L 6.8125 26.234375 L 6.695312 26.234375 M 6.914062 26.3125 L 7.03125 26.3125 L 7.03125 26.234375 L 6.914062 26.234375 M 7.132812 26.3125 L 7.25 26.3125 L 7.25 26.234375 L 7.132812 26.234375 M 7.351562 26.3125 L 7.464844 26.3125 L 7.464844 26.234375 L 7.351562 26.234375 M 7.566406 26.3125 L 7.683594 26.3125 L 7.683594 26.234375 L 7.566406 26.234375 M 7.785156 26.3125 L 7.902344 26.3125 L 7.902344 26.234375 L 7.785156 26.234375 M 8.003906 26.3125 L 8.121094 26.3125 L 8.121094 26.234375 L 8.003906 26.234375 M 8.222656 26.3125 L 8.335938 26.3125 L 8.335938 26.234375 L 8.222656 26.234375 M 8.4375 26.3125 L 8.554688 26.3125 L 8.554688 26.234375 L 8.4375 26.234375 M 8.65625 26.3125 L 8.773438 26.3125 L 8.773438 26.234375 L 8.65625 26.234375 M 8.875 26.3125 L 8.992188 26.3125 L 8.992188 26.234375 L 8.875 26.234375 M 9.09375 26.3125 L 9.207031 26.3125 L 9.207031 26.234375 L 9.09375 26.234375 M 9.308594 26.3125 L 9.425781 26.3125 L 9.425781 26.234375 L 9.308594 26.234375 M 9.527344 26.3125 L 9.644531 26.3125 L 9.644531 26.234375 L 9.527344 26.234375 M 9.746094 26.3125 L 9.863281 26.3125 L 9.863281 26.234375 L 9.746094 26.234375 M 9.964844 26.3125 L 10.078125 26.3125 L 10.078125 26.234375 L 9.964844 26.234375 M 10.179688 26.3125 L 10.296875 26.3125 L 10.296875 26.234375 L 10.179688 26.234375 M 10.398438 26.3125 L 10.515625 26.3125 L 10.515625 26.234375 L 10.398438 26.234375 M 10.617188 26.3125 L 10.734375 26.3125 L 10.734375 26.234375 L 10.617188 26.234375 M 10.835938 26.3125 L 10.949219 26.3125 L 10.949219 26.234375 L 10.835938 26.234375 M 11.054688 26.3125 L 11.167969 26.3125 L 11.167969 26.234375 L 11.054688 26.234375 M 11.269531 26.3125 L 11.386719 26.3125 L 11.386719 26.234375 L 11.269531 26.234375 M 11.488281 26.3125 L 11.605469 26.3125 L 11.605469 26.234375 L 11.488281 26.234375 M 11.707031 26.3125 L 11.820312 26.3125 L 11.820312 26.234375 L 11.707031 26.234375 M 11.925781 26.3125 L 12.039062 26.3125 L 12.039062 26.234375 L 11.925781 26.234375 M 12.140625 26.3125 L 12.257812 26.3125 L 12.257812 26.234375 L 12.140625 26.234375 M 12.359375 26.3125 L 12.476562 26.3125 L 12.476562 26.234375 L 12.359375 26.234375 M 12.578125 26.3125 L 12.691406 26.3125 L 12.691406 26.234375 L 12.578125 26.234375 M 12.796875 26.3125 L 12.910156 26.3125 L 12.910156 26.234375 L 12.796875 26.234375 M 13.011719 26.3125 L 13.128906 26.3125 L 13.128906 26.234375 L 13.011719 26.234375 M 13.230469 26.3125 L 13.347656 26.3125 L 13.347656 26.234375 L 13.230469 26.234375 M 13.449219 26.3125 L 13.566406 26.3125 L 13.566406 26.234375 L 13.449219 26.234375 M 13.667969 26.3125 L 13.78125 26.3125 L 13.78125 26.234375 L 13.667969 26.234375 M 13.882812 26.3125 L 14 26.3125 L 14 26.234375 L 13.882812 26.234375 M 14.101562 26.3125 L 14.21875 26.3125 L 14.21875 26.234375 L 14.101562 26.234375 M 14.320312 26.3125 L 14.4375 26.3125 L 14.4375 26.234375 L 14.320312 26.234375 M 14.539062 26.3125 L 14.652344 26.3125 L 14.652344 26.234375 L 14.539062 26.234375 M 14.753906 26.3125 L 14.871094 26.3125 L 14.871094 26.234375 L 14.753906 26.234375 M 14.972656 26.3125 L 15.089844 26.3125 L 15.089844 26.234375 L 14.972656 26.234375 M 15.191406 26.3125 L 15.308594 26.3125 L 15.308594 26.234375 L 15.191406 26.234375 M 15.410156 26.3125 L 15.523438 26.3125 L 15.523438 26.234375 L 15.410156 26.234375 M 15.625 26.3125 L 15.742188 26.3125 L 15.742188 26.234375 L 15.625 26.234375 M 15.84375 26.3125 L 15.960938 26.3125 L 15.960938 26.234375 L 15.84375 26.234375 M 16.0625 26.3125 L 16.179688 26.3125 L 16.179688 26.234375 L 16.0625 26.234375 M 16.28125 26.3125 L 16.394531 26.3125 L 16.394531 26.234375 L 16.28125 26.234375 M 16.496094 26.3125 L 16.613281 26.3125 L 16.613281 26.234375 L 16.496094 26.234375 M 16.714844 26.3125 L 16.832031 26.3125 L 16.832031 26.234375 L 16.714844 26.234375 M 16.933594 26.3125 L 17.050781 26.3125 L 17.050781 26.234375 L 16.933594 26.234375 M 17.152344 26.3125 L 17.265625 26.3125 L 17.265625 26.234375 L 17.152344 26.234375 M 17.371094 26.3125 L 17.484375 26.3125 L 17.484375 26.234375 L 17.371094 26.234375 M 17.585938 26.3125 L 17.703125 26.3125 L 17.703125 26.234375 L 17.585938 26.234375 M 17.804688 26.3125 L 17.921875 26.3125 L 17.921875 26.234375 L 17.804688 26.234375 M 18.023438 26.3125 L 18.136719 26.3125 L 18.136719 26.234375 L 18.023438 26.234375 M 18.242188 26.3125 L 18.355469 26.3125 L 18.355469 26.234375 L 18.242188 26.234375 M 18.457031 26.3125 L 18.574219 26.3125 L 18.574219 26.234375 L 18.457031 26.234375 M 18.675781 26.3125 L 18.792969 26.3125 L 18.792969 26.234375 L 18.675781 26.234375 M 18.894531 26.3125 L 19.007812 26.3125 L 19.007812 26.234375 L 18.894531 26.234375 M 19.113281 26.3125 L 19.226562 26.3125 L 19.226562 26.234375 L 19.113281 26.234375 M 19.328125 26.3125 L 19.445312 26.3125 L 19.445312 26.234375 L 19.328125 26.234375 M 19.546875 26.3125 L 19.664062 26.3125 L 19.664062 26.234375 L 19.546875 26.234375 M 19.765625 26.3125 L 19.878906 26.3125 L 19.878906 26.234375 L 19.765625 26.234375 M 19.984375 26.3125 L 20.097656 26.3125 L 20.097656 26.234375 L 19.984375 26.234375 M 20.199219 26.3125 L 20.316406 26.3125 L 20.316406 26.234375 L 20.199219 26.234375 M 20.417969 26.3125 L 20.535156 26.3125 L 20.535156 26.234375 L 20.417969 26.234375 M 20.636719 26.3125 L 20.753906 26.3125 L 20.753906 26.234375 L 20.636719 26.234375 M 20.855469 26.3125 L 20.96875 26.3125 L 20.96875 26.234375 L 20.855469 26.234375 M 21.070312 26.3125 L 21.1875 26.3125 L 21.1875 26.234375 L 21.070312 26.234375 M 21.289062 26.3125 L 21.40625 26.3125 L 21.40625 26.234375 L 21.289062 26.234375 M 21.507812 26.3125 L 21.625 26.3125 L 21.625 26.234375 L 21.507812 26.234375 M 21.726562 26.3125 L 21.839844 26.3125 L 21.839844 26.234375 L 21.726562 26.234375 M 21.941406 26.3125 L 22.058594 26.3125 L 22.058594 26.234375 L 21.941406 26.234375 M 22.160156 26.3125 L 22.277344 26.3125 L 22.277344 26.234375 L 22.160156 26.234375 M 22.378906 26.3125 L 22.496094 26.3125 L 22.496094 26.234375 L 22.378906 26.234375 M 22.597656 26.3125 L 22.710938 26.3125 L 22.710938 26.234375 L 22.597656 26.234375 M 22.8125 26.3125 L 22.929688 26.3125 L 22.929688 26.234375 L 22.8125 26.234375 M 23.03125 26.3125 L 23.148438 26.3125 L 23.148438 26.234375 L 23.03125 26.234375 M 23.25 26.3125 L 23.367188 26.3125 L 23.367188 26.234375 L 23.25 26.234375 M 23.46875 26.3125 L 23.582031 26.3125 L 23.582031 26.234375 L 23.46875 26.234375 M 23.683594 26.3125 L 23.800781 26.3125 L 23.800781 26.234375 L 23.683594 26.234375 M 23.902344 26.3125 L 24.019531 26.3125 L 24.019531 26.234375 L 23.902344 26.234375 M 24.121094 26.3125 L 24.238281 26.3125 L 24.238281 26.234375 L 24.121094 26.234375 M 24.339844 26.3125 L 24.453125 26.3125 L 24.453125 26.234375 L 24.339844 26.234375 M 24.558594 26.3125 L 24.671875 26.3125 L 24.671875 26.234375 L 24.558594 26.234375 M 24.773438 26.3125 L 24.890625 26.3125 L 24.890625 26.234375 L 24.773438 26.234375 M 24.992188 26.3125 L 25.109375 26.3125 L 25.109375 26.234375 L 24.992188 26.234375 M 25.210938 26.3125 L 25.324219 26.3125 L 25.324219 26.234375 L 25.210938 26.234375 M 25.429688 26.3125 L 25.542969 26.3125 L 25.542969 26.234375 L 25.429688 26.234375 M 25.644531 26.3125 L 25.761719 26.3125 L 25.761719 26.234375 L 25.644531 26.234375 M 25.863281 26.3125 L 25.980469 26.3125 L 25.980469 26.234375 L 25.863281 26.234375 M 26.082031 26.3125 L 26.195312 26.3125 L 26.195312 26.234375 L 26.082031 26.234375 M 26.300781 26.3125 L 26.414062 26.3125 L 26.414062 26.234375 L 26.300781 26.234375 M 26.515625 26.3125 L 26.632812 26.3125 L 26.632812 26.234375 L 26.515625 26.234375 M 26.734375 26.3125 L 26.851562 26.3125 L 26.851562 26.234375 L 26.734375 26.234375 M 26.953125 26.3125 L 27.070312 26.3125 L 27.070312 26.234375 L 26.953125 26.234375 M 27.171875 26.3125 L 27.285156 26.3125 L 27.285156 26.234375 L 27.171875 26.234375 M 27.386719 26.3125 L 27.503906 26.3125 L 27.503906 26.234375 L 27.386719 26.234375 M 27.605469 26.3125 L 27.722656 26.3125 L 27.722656 26.234375 L 27.605469 26.234375 M 27.824219 26.3125 L 27.941406 26.3125 L 27.941406 26.234375 L 27.824219 26.234375 M 28.042969 26.3125 L 28.15625 26.3125 L 28.15625 26.234375 L 28.042969 26.234375 M 28.257812 26.3125 L 28.375 26.3125 L 28.375 26.234375 L 28.257812 26.234375 M 28.476562 26.3125 L 28.59375 26.3125 L 28.59375 26.234375 L 28.476562 26.234375 M 28.695312 26.3125 L 28.8125 26.3125 L 28.8125 26.234375 L 28.695312 26.234375 M 28.914062 26.3125 L 29.027344 26.3125 L 29.027344 26.234375 L 28.914062 26.234375 M 29.128906 26.3125 L 29.246094 26.3125 L 29.246094 26.234375 L 29.128906 26.234375 M 29.347656 26.3125 L 29.464844 26.3125 L 29.464844 26.234375 L 29.347656 26.234375 M 29.566406 26.3125 L 29.683594 26.3125 L 29.683594 26.234375 L 29.566406 26.234375 M 29.785156 26.3125 L 29.898438 26.3125 L 29.898438 26.234375 L 29.785156 26.234375 M 30 26.3125 L 30.089844 26.3125 L 30.089844 26.234375 L 30 26.234375 "/>
        </g>
        <g clip-rule="nonzero" clip-path="url(#clip8)">
            <path style="fill:none;stroke-width:10.793;stroke-linecap:butt;stroke-linejoin:miter;stroke:rgb(31.369019%,47.44873%,49.798584%);stroke-opacity:1;stroke-miterlimit:10;"
                  d="M 4111.434101 1432.107032 L 4127.744011 1432.107032 L 4127.744011 1447.973273 " transform="matrix(0.00718505,0,0,-0.00713977,0.650551,36.498347)"/>
        </g>
        <path style=" stroke:none;fill-rule:nonzero;fill:rgb(31.369019%,47.44873%,49.798584%);fill-opacity:1;"
              d="M 30.34375 25.925781 L 30.34375 25.789062 L 30.269531 25.789062 L 30.269531 25.925781 M 30.34375 25.671875 L 30.34375 25.539062 L 30.269531 25.539062 L 30.269531 25.671875 M 30.34375 25.421875 L 30.34375 25.289062 L 30.269531 25.289062 L 30.269531 25.421875 M 30.34375 25.171875 L 30.34375 25.039062 L 30.269531 25.039062 L 30.269531 25.171875 "/>
        <path style="fill:none;stroke-width:10.793;stroke-linecap:butt;stroke-linejoin:miter;stroke:rgb(31.369019%,47.44873%,49.798584%);stroke-opacity:1;stroke-miterlimit:10;"
              d="M 4127.744011 1621.407702 L 4127.744011 1637.821055 L 4143.510257 1637.821055 " transform="matrix(0.00718505,0,0,-0.00713977,0.650551,36.498347)"/>
        <path style=" stroke:none;fill-rule:nonzero;fill:rgb(31.369019%,47.44873%,49.798584%);fill-opacity:1;"
              d="M 30.636719 24.84375 L 30.757812 24.84375 L 30.757812 24.765625 L 30.636719 24.765625 M 30.863281 24.84375 L 30.984375 24.84375 L 30.984375 24.765625 L 30.863281 24.765625 M 31.09375 24.84375 L 31.214844 24.84375 L 31.214844 24.765625 L 31.09375 24.765625 M 31.320312 24.84375 L 31.441406 24.84375 L 31.441406 24.765625 L 31.320312 24.765625 "/>
        <path style="fill:none;stroke-width:10.793;stroke-linecap:butt;stroke-linejoin:miter;stroke:rgb(31.369019%,47.44873%,49.798584%);stroke-opacity:1;stroke-miterlimit:10;"
              d="M 4300.085393 1637.821055 L 4316.395303 1637.821055 L 4316.395303 1653.687296 " transform="matrix(0.00718505,0,0,-0.00713977,0.650551,36.498347)"/>
        <path style=" stroke:none;fill-rule:nonzero;fill:rgb(31.369019%,47.44873%,49.798584%);fill-opacity:1;"
              d="M 31.703125 24.460938 L 31.703125 24.332031 L 31.625 24.332031 L 31.625 24.460938 M 31.703125 24.21875 L 31.703125 24.089844 L 31.625 24.089844 L 31.625 24.21875 M 31.703125 23.972656 L 31.703125 23.84375 L 31.625 23.84375 L 31.625 23.972656 M 31.703125 23.730469 L 31.703125 23.601562 L 31.625 23.601562 L 31.625 23.730469 "/>
        <path style="fill:none;stroke-width:10.793;stroke-linecap:butt;stroke-linejoin:miter;stroke:rgb(31.369019%,47.44873%,49.798584%);stroke-opacity:1;stroke-miterlimit:10;"
              d="M 4316.395303 1822.197719 L 4316.395303 1838.611072 C 4321.288276 1839.705296 4326.724913 1841.346631 4331.617886 1842.440855 "
              transform="matrix(0.00718505,0,0,-0.00713977,0.650551,36.498347)"/>
        <path style=" stroke:none;fill-rule:nonzero;fill:rgb(31.369019%,47.44873%,49.798584%);fill-opacity:1;"
              d="M 31.984375 23.3125 C 32.019531 23.300781 32.058594 23.285156 32.09375 23.273438 L 32.066406 23.199219 C 32.03125 23.214844 31.992188 23.230469 31.957031 23.242188 Z M 32.191406 23.230469 C 32.226562 23.214844 32.261719 23.199219 32.296875 23.179688 L 32.265625 23.113281 C 32.230469 23.128906 32.195312 23.144531 32.160156 23.160156 Z M 32.390625 23.132812 C 32.425781 23.113281 32.460938 23.097656 32.496094 23.078125 L 32.457031 23.007812 C 32.421875 23.027344 32.390625 23.046875 32.355469 23.066406 Z M 32.585938 23.023438 C 32.617188 23.003906 32.652344 22.980469 32.683594 22.960938 L 32.640625 22.894531 C 32.609375 22.917969 32.578125 22.9375 32.542969 22.957031 Z M 32.769531 22.902344 C 32.804688 22.878906 32.835938 22.855469 32.867188 22.832031 L 32.820312 22.769531 C 32.789062 22.792969 32.757812 22.816406 32.726562 22.835938 Z M 32.949219 22.765625 C 32.980469 22.742188 33.011719 22.71875 33.039062 22.691406 L 32.992188 22.632812 C 32.960938 22.660156 32.929688 22.683594 32.902344 22.707031 Z M 33.121094 22.625 C 33.148438 22.597656 33.175781 22.570312 33.207031 22.542969 L 33.152344 22.488281 C 33.125 22.515625 33.097656 22.539062 33.066406 22.566406 Z M 33.28125 22.472656 C 33.308594 22.441406 33.335938 22.414062 33.363281 22.386719 L 33.304688 22.332031 C 33.28125 22.363281 33.253906 22.390625 33.226562 22.417969 Z M 33.433594 22.308594 C 33.460938 22.28125 33.484375 22.25 33.511719 22.222656 L 33.453125 22.171875 C 33.425781 22.199219 33.402344 22.230469 33.375 22.257812 Z M 33.578125 22.140625 C 33.601562 22.109375 33.625 22.078125 33.648438 22.046875 L 33.585938 22 C 33.5625 22.03125 33.539062 22.0625 33.515625 22.09375 Z M 33.710938 21.964844 C 33.734375 21.933594 33.757812 21.902344 33.78125 21.867188 L 33.714844 21.824219 C 33.695312 21.855469 33.671875 21.890625 33.648438 21.921875 Z M 33.839844 21.785156 C 33.859375 21.75 33.882812 21.71875 33.902344 21.683594 L 33.835938 21.644531 C 33.816406 21.675781 33.792969 21.710938 33.773438 21.742188 Z M 33.957031 21.59375 C 33.976562 21.5625 33.996094 21.527344 34.015625 21.492188 L 33.945312 21.457031 C 33.929688 21.488281 33.910156 21.523438 33.890625 21.554688 Z M 34.066406 21.402344 C 34.082031 21.367188 34.101562 21.332031 34.121094 21.296875 L 34.050781 21.261719 C 34.03125 21.296875 34.015625 21.332031 33.996094 21.367188 Z M 34.164062 21.207031 C 34.183594 21.171875 34.199219 21.136719 34.214844 21.097656 L 34.144531 21.066406 C 34.128906 21.101562 34.113281 21.136719 34.09375 21.171875 Z M 34.257812 21.003906 C 34.273438 20.96875 34.285156 20.933594 34.300781 20.894531 L 34.230469 20.867188 C 34.214844 20.902344 34.199219 20.9375 34.183594 20.972656 Z M 34.339844 20.800781 C 34.351562 20.761719 34.367188 20.726562 34.378906 20.6875 L 34.308594 20.664062 C 34.292969 20.699219 34.28125 20.734375 34.265625 20.773438 Z M 34.414062 20.589844 C 34.425781 20.554688 34.4375 20.515625 34.449219 20.480469 L 34.375 20.457031 C 34.363281 20.492188 34.351562 20.53125 34.339844 20.566406 Z M 34.480469 20.378906 C 34.492188 20.34375 34.5 20.304688 34.511719 20.265625 L 34.4375 20.246094 C 34.425781 20.285156 34.414062 20.320312 34.40625 20.359375 Z M 34.535156 20.167969 C 34.546875 20.128906 34.554688 20.089844 34.5625 20.050781 L 34.488281 20.035156 C 34.480469 20.074219 34.472656 20.109375 34.460938 20.148438 Z M 34.585938 19.949219 C 34.59375 19.914062 34.601562 19.875 34.609375 19.835938 L 34.53125 19.820312 C 34.523438 19.859375 34.519531 19.898438 34.511719 19.933594 Z M 34.625 19.734375 C 34.632812 19.695312 34.640625 19.65625 34.644531 19.617188 L 34.566406 19.605469 C 34.5625 19.644531 34.554688 19.683594 34.550781 19.722656 Z M 34.660156 19.515625 C 34.664062 19.476562 34.667969 19.4375 34.671875 19.398438 L 34.597656 19.390625 C 34.589844 19.429688 34.585938 19.46875 34.582031 19.503906 Z M 34.683594 19.296875 C 34.6875 19.257812 34.691406 19.21875 34.691406 19.179688 L 34.617188 19.171875 C 34.613281 19.210938 34.609375 19.25 34.605469 19.289062 Z M 34.699219 19.074219 C 34.703125 19.035156 34.703125 18.996094 34.703125 18.957031 L 34.628906 18.957031 C 34.625 18.996094 34.625 19.035156 34.621094 19.070312 Z M 34.707031 18.855469 L 34.707031 18.738281 L 34.632812 18.738281 L 34.632812 18.742188 L 34.628906 18.855469 Z M 34.707031 18.632812 C 34.707031 18.59375 34.707031 18.554688 34.703125 18.515625 L 34.625 18.519531 C 34.628906 18.558594 34.628906 18.597656 34.628906 18.636719 Z M 34.699219 18.414062 C 34.699219 18.375 34.695312 18.335938 34.691406 18.296875 L 34.613281 18.300781 C 34.617188 18.339844 34.621094 18.378906 34.621094 18.417969 Z M 34.683594 18.195312 C 34.679688 18.15625 34.675781 18.117188 34.671875 18.078125 L 34.59375 18.085938 C 34.597656 18.125 34.601562 18.160156 34.605469 18.199219 Z M 34.660156 17.972656 C 34.65625 17.933594 34.648438 17.898438 34.644531 17.859375 L 34.566406 17.871094 C 34.574219 17.90625 34.578125 17.945312 34.582031 17.984375 Z M 34.628906 17.757812 C 34.621094 17.71875 34.613281 17.679688 34.605469 17.640625 L 34.53125 17.65625 C 34.539062 17.691406 34.542969 17.730469 34.550781 17.769531 Z M 34.585938 17.539062 C 34.578125 17.5 34.570312 17.460938 34.5625 17.425781 L 34.484375 17.441406 C 34.496094 17.480469 34.503906 17.515625 34.511719 17.554688 Z M 34.539062 17.324219 C 34.527344 17.285156 34.519531 17.246094 34.507812 17.210938 L 34.433594 17.230469 C 34.445312 17.265625 34.453125 17.304688 34.460938 17.34375 Z M 34.480469 17.109375 C 34.46875 17.074219 34.457031 17.035156 34.445312 16.996094 L 34.371094 17.019531 C 34.382812 17.058594 34.394531 17.09375 34.40625 17.132812 Z M 34.414062 16.898438 C 34.402344 16.863281 34.390625 16.824219 34.375 16.789062 L 34.304688 16.8125 C 34.316406 16.851562 34.328125 16.886719 34.339844 16.921875 Z M 34.339844 16.691406 C 34.328125 16.652344 34.3125 16.617188 34.296875 16.582031 L 34.226562 16.609375 C 34.238281 16.644531 34.253906 16.683594 34.269531 16.71875 Z M 34.257812 16.484375 C 34.242188 16.449219 34.226562 16.414062 34.210938 16.378906 L 34.140625 16.410156 C 34.15625 16.445312 34.171875 16.480469 34.1875 16.515625 Z M 34.167969 16.285156 C 34.148438 16.25 34.132812 16.214844 34.113281 16.179688 L 34.046875 16.214844 C 34.0625 16.246094 34.078125 16.28125 34.097656 16.316406 Z M 34.066406 16.085938 C 34.046875 16.050781 34.027344 16.015625 34.007812 15.984375 L 33.941406 16.019531 C 33.960938 16.054688 33.980469 16.089844 33.996094 16.125 Z M 33.957031 15.894531 C 33.9375 15.859375 33.917969 15.828125 33.894531 15.792969 L 33.832031 15.835938 C 33.851562 15.867188 33.871094 15.898438 33.890625 15.933594 Z M 33.839844 15.707031 C 33.816406 15.671875 33.796875 15.640625 33.773438 15.609375 L 33.710938 15.652344 C 33.730469 15.683594 33.753906 15.714844 33.773438 15.75 Z M 33.714844 15.523438 C 33.691406 15.492188 33.667969 15.460938 33.644531 15.429688 L 33.582031 15.476562 C 33.605469 15.507812 33.628906 15.539062 33.652344 15.570312 Z M 33.578125 15.347656 C 33.554688 15.316406 33.527344 15.289062 33.503906 15.257812 L 33.445312 15.308594 C 33.46875 15.335938 33.496094 15.367188 33.519531 15.398438 Z M 33.433594 15.179688 C 33.410156 15.148438 33.382812 15.121094 33.355469 15.09375 L 33.300781 15.144531 C 33.324219 15.171875 33.351562 15.203125 33.378906 15.230469 Z M 33.28125 15.019531 C 33.253906 14.988281 33.226562 14.960938 33.199219 14.9375 L 33.144531 14.992188 C 33.171875 15.019531 33.199219 15.042969 33.226562 15.074219 Z M 33.121094 14.863281 C 33.09375 14.839844 33.0625 14.8125 33.03125 14.789062 L 32.980469 14.847656 C 33.011719 14.871094 33.039062 14.898438 33.070312 14.921875 Z M 32.953125 14.722656 C 32.921875 14.695312 32.890625 14.671875 32.859375 14.648438 L 32.8125 14.710938 C 32.84375 14.734375 32.875 14.757812 32.902344 14.78125 Z M 32.773438 14.585938 C 32.742188 14.566406 32.710938 14.542969 32.675781 14.519531 L 32.632812 14.585938 C 32.664062 14.605469 32.699219 14.628906 32.730469 14.652344 Z M 32.589844 14.464844 C 32.554688 14.445312 32.519531 14.425781 32.484375 14.40625 L 32.449219 14.472656 C 32.480469 14.492188 32.515625 14.511719 32.546875 14.53125 Z M 32.394531 14.355469 C 32.359375 14.335938 32.324219 14.320312 32.289062 14.300781 L 32.253906 14.371094 C 32.289062 14.386719 32.324219 14.40625 32.359375 14.421875 Z M 32.195312 14.257812 C 32.15625 14.242188 32.121094 14.226562 32.085938 14.210938 L 32.054688 14.28125 C 32.089844 14.296875 32.128906 14.3125 32.164062 14.328125 Z M 31.988281 14.171875 C 31.953125 14.160156 31.921875 14.148438 31.886719 14.136719 L 31.863281 14.210938 C 31.894531 14.222656 31.929688 14.234375 31.960938 14.246094 Z M 31.988281 14.171875 "/>
        <g style="fill:rgb(100%,100%,100%);fill-opacity:1;">
            <g transform="translate(10.497788, 16.824972)">
                <path style="stroke:none;"
                      d="M 2.046875 0.0625 C 1.984375 0.0625 1.910156 0.03125 1.828125 -0.03125 C 1.753906 -0.101562 1.6875 -0.195312 1.625 -0.3125 L 1.203125 -1.09375 L 0.859375 -1.09375 L 0.859375 -0.5 C 0.859375 -0.394531 0.863281 -0.320312 0.875 -0.28125 C 0.882812 -0.238281 0.90625 -0.207031 0.9375 -0.1875 C 0.976562 -0.175781 1.046875 -0.171875 1.140625 -0.171875 L 1.140625 -0.15625 L 1.109375 0.015625 C 1.078125 0.015625 1.015625 0.0078125 0.921875 0 C 0.828125 0 0.726562 0 0.625 0 C 0.53125 0 0.445312 0 0.375 0 C 0.300781 0.0078125 0.253906 0.015625 0.234375 0.015625 L 0.265625 -0.15625 C 0.347656 -0.175781 0.410156 -0.191406 0.453125 -0.203125 C 0.492188 -0.222656 0.519531 -0.253906 0.53125 -0.296875 C 0.550781 -0.335938 0.5625 -0.398438 0.5625 -0.484375 L 0.578125 -2.15625 C 0.578125 -2.238281 0.566406 -2.296875 0.546875 -2.328125 C 0.523438 -2.359375 0.484375 -2.375 0.421875 -2.375 C 0.398438 -2.375 0.375 -2.375 0.34375 -2.375 C 0.3125 -2.375 0.289062 -2.375 0.28125 -2.375 L 0.28125 -2.390625 L 0.3125 -2.5625 C 0.34375 -2.5625 0.398438 -2.554688 0.484375 -2.546875 C 0.578125 -2.546875 0.664062 -2.546875 0.75 -2.546875 C 0.84375 -2.546875 0.9375 -2.546875 1.03125 -2.546875 C 1.132812 -2.554688 1.207031 -2.5625 1.25 -2.5625 C 1.488281 -2.5625 1.679688 -2.503906 1.828125 -2.390625 C 1.972656 -2.285156 2.046875 -2.132812 2.046875 -1.9375 C 2.046875 -1.78125 1.992188 -1.632812 1.890625 -1.5 C 1.785156 -1.363281 1.640625 -1.253906 1.453125 -1.171875 L 1.90625 -0.46875 C 1.976562 -0.34375 2.050781 -0.253906 2.125 -0.203125 C 2.195312 -0.148438 2.285156 -0.125 2.390625 -0.125 L 2.40625 -0.109375 L 2.390625 0.015625 Z M 1.28125 -1.28125 C 1.28125 -1.269531 1.320312 -1.285156 1.40625 -1.328125 C 1.488281 -1.367188 1.5625 -1.429688 1.625 -1.515625 C 1.6875 -1.609375 1.71875 -1.722656 1.71875 -1.859375 C 1.71875 -2.210938 1.472656 -2.390625 0.984375 -2.390625 C 0.953125 -2.390625 0.929688 -2.382812 0.921875 -2.375 C 0.921875 -2.363281 0.914062 -2.335938 0.90625 -2.296875 C 0.882812 -1.890625 0.875 -1.5625 0.875 -1.3125 Z M 1.28125 -1.28125 "/>
            </g>
        </g>
        <g style="fill:rgb(100%,100%,100%);fill-opacity:1;">
            <g transform="translate(12.941788, 16.824972)">
                <path style="stroke:none;"
                      d="M 0.984375 0.046875 C 0.816406 0.046875 0.671875 0.0078125 0.546875 -0.0625 C 0.421875 -0.132812 0.320312 -0.238281 0.25 -0.375 C 0.175781 -0.507812 0.140625 -0.664062 0.140625 -0.84375 C 0.140625 -1.019531 0.179688 -1.1875 0.265625 -1.34375 C 0.347656 -1.5 0.457031 -1.625 0.59375 -1.71875 C 0.726562 -1.8125 0.875 -1.859375 1.03125 -1.859375 C 1.21875 -1.859375 1.363281 -1.804688 1.46875 -1.703125 C 1.570312 -1.609375 1.625 -1.46875 1.625 -1.28125 C 1.625 -1.195312 1.613281 -1.128906 1.59375 -1.078125 L 1.546875 -1.03125 L 0.4375 -1.03125 C 0.4375 -0.769531 0.488281 -0.566406 0.59375 -0.421875 C 0.695312 -0.285156 0.847656 -0.21875 1.046875 -0.21875 C 1.191406 -0.21875 1.351562 -0.257812 1.53125 -0.34375 L 1.546875 -0.34375 L 1.59375 -0.21875 C 1.5 -0.15625 1.394531 -0.09375 1.28125 -0.03125 C 1.164062 0.0195312 1.066406 0.046875 0.984375 0.046875 Z M 1.1875 -1.21875 C 1.226562 -1.21875 1.253906 -1.222656 1.265625 -1.234375 C 1.273438 -1.253906 1.28125 -1.285156 1.28125 -1.328125 C 1.28125 -1.429688 1.25 -1.507812 1.1875 -1.5625 C 1.132812 -1.625 1.054688 -1.65625 0.953125 -1.65625 C 0.828125 -1.65625 0.71875 -1.609375 0.625 -1.515625 C 0.539062 -1.429688 0.484375 -1.320312 0.453125 -1.1875 Z M 1.1875 -1.21875 "/>
            </g>
        </g>
        <g style="fill:rgb(100%,100%,100%);fill-opacity:1;">
            <g transform="translate(14.733789, 16.824972)">
                <path style="stroke:none;"
                      d="M 0.984375 0.046875 C 0.722656 0.046875 0.515625 -0.03125 0.359375 -0.1875 C 0.210938 -0.351562 0.140625 -0.570312 0.140625 -0.84375 C 0.140625 -1.03125 0.179688 -1.203125 0.265625 -1.359375 C 0.347656 -1.515625 0.457031 -1.632812 0.59375 -1.71875 C 0.738281 -1.8125 0.894531 -1.859375 1.0625 -1.859375 C 1.144531 -1.859375 1.21875 -1.851562 1.28125 -1.84375 C 1.351562 -1.832031 1.410156 -1.816406 1.453125 -1.796875 C 1.492188 -1.785156 1.519531 -1.78125 1.53125 -1.78125 L 1.546875 -1.75 C 1.546875 -1.738281 1.539062 -1.707031 1.53125 -1.65625 C 1.519531 -1.601562 1.503906 -1.535156 1.484375 -1.453125 C 1.472656 -1.378906 1.46875 -1.296875 1.46875 -1.203125 L 1.296875 -1.1875 L 1.296875 -1.3125 C 1.296875 -1.40625 1.265625 -1.484375 1.203125 -1.546875 C 1.148438 -1.609375 1.070312 -1.640625 0.96875 -1.640625 C 0.8125 -1.640625 0.6875 -1.582031 0.59375 -1.46875 C 0.507812 -1.351562 0.46875 -1.1875 0.46875 -0.96875 C 0.46875 -0.738281 0.515625 -0.554688 0.609375 -0.421875 C 0.703125 -0.285156 0.835938 -0.21875 1.015625 -0.21875 C 1.078125 -0.21875 1.140625 -0.226562 1.203125 -0.25 C 1.273438 -0.269531 1.332031 -0.289062 1.375 -0.3125 C 1.414062 -0.332031 1.441406 -0.347656 1.453125 -0.359375 L 1.484375 -0.34375 L 1.53125 -0.21875 C 1.507812 -0.207031 1.46875 -0.179688 1.40625 -0.140625 C 1.34375 -0.0976562 1.269531 -0.0546875 1.1875 -0.015625 C 1.101562 0.0234375 1.035156 0.046875 0.984375 0.046875 Z M 0.984375 0.046875 "/>
            </g>
        </g>
        <g style="fill:rgb(100%,100%,100%);fill-opacity:1;">
            <g transform="translate(16.429793, 16.824972)">
                <path style="stroke:none;"
                      d="M 0.984375 0.046875 C 0.816406 0.046875 0.671875 0.0078125 0.546875 -0.0625 C 0.421875 -0.132812 0.320312 -0.238281 0.25 -0.375 C 0.175781 -0.507812 0.140625 -0.664062 0.140625 -0.84375 C 0.140625 -1.019531 0.179688 -1.1875 0.265625 -1.34375 C 0.347656 -1.5 0.457031 -1.625 0.59375 -1.71875 C 0.726562 -1.8125 0.875 -1.859375 1.03125 -1.859375 C 1.21875 -1.859375 1.363281 -1.804688 1.46875 -1.703125 C 1.570312 -1.609375 1.625 -1.46875 1.625 -1.28125 C 1.625 -1.195312 1.613281 -1.128906 1.59375 -1.078125 L 1.546875 -1.03125 L 0.4375 -1.03125 C 0.4375 -0.769531 0.488281 -0.566406 0.59375 -0.421875 C 0.695312 -0.285156 0.847656 -0.21875 1.046875 -0.21875 C 1.191406 -0.21875 1.351562 -0.257812 1.53125 -0.34375 L 1.546875 -0.34375 L 1.59375 -0.21875 C 1.5 -0.15625 1.394531 -0.09375 1.28125 -0.03125 C 1.164062 0.0195312 1.066406 0.046875 0.984375 0.046875 Z M 1.1875 -1.21875 C 1.226562 -1.21875 1.253906 -1.222656 1.265625 -1.234375 C 1.273438 -1.253906 1.28125 -1.285156 1.28125 -1.328125 C 1.28125 -1.429688 1.25 -1.507812 1.1875 -1.5625 C 1.132812 -1.625 1.054688 -1.65625 0.953125 -1.65625 C 0.828125 -1.65625 0.71875 -1.609375 0.625 -1.515625 C 0.539062 -1.429688 0.484375 -1.320312 0.453125 -1.1875 Z M 1.1875 -1.21875 "/>
            </g>
        </g>
        <g style="fill:rgb(100%,100%,100%);fill-opacity:1;">
            <g transform="translate(18.221794, 16.824972)">
                <path style="stroke:none;"
                      d="M 0.203125 0.796875 C 0.253906 0.785156 0.296875 0.769531 0.328125 0.75 C 0.359375 0.738281 0.378906 0.710938 0.390625 0.671875 C 0.398438 0.640625 0.40625 0.582031 0.40625 0.5 C 0.40625 0.394531 0.40625 0.300781 0.40625 0.21875 L 0.40625 -1.359375 C 0.40625 -1.441406 0.390625 -1.5 0.359375 -1.53125 C 0.335938 -1.570312 0.289062 -1.59375 0.21875 -1.59375 L 0.171875 -1.59375 L 0.15625 -1.609375 L 0.171875 -1.75 C 0.285156 -1.757812 0.398438 -1.773438 0.515625 -1.796875 C 0.628906 -1.828125 0.703125 -1.847656 0.734375 -1.859375 L 0.75 -1.828125 C 0.75 -1.816406 0.742188 -1.785156 0.734375 -1.734375 C 0.722656 -1.691406 0.71875 -1.648438 0.71875 -1.609375 L 0.734375 -1.578125 C 0.984375 -1.753906 1.140625 -1.84375 1.203125 -1.84375 C 1.347656 -1.84375 1.476562 -1.804688 1.59375 -1.734375 C 1.71875 -1.660156 1.8125 -1.5625 1.875 -1.4375 C 1.9375 -1.3125 1.96875 -1.164062 1.96875 -1 C 1.96875 -0.8125 1.921875 -0.632812 1.828125 -0.46875 C 1.742188 -0.3125 1.625 -0.1875 1.46875 -0.09375 C 1.3125 0 1.144531 0.046875 0.96875 0.046875 C 0.914062 0.046875 0.859375 0.0390625 0.796875 0.03125 C 0.742188 0.03125 0.707031 0.03125 0.6875 0.03125 L 0.6875 0.4375 C 0.6875 0.5625 0.695312 0.644531 0.71875 0.6875 C 0.75 0.738281 0.800781 0.765625 0.875 0.765625 L 1.015625 0.75 L 1.015625 0.765625 L 0.984375 0.921875 L 0.609375 0.921875 C 0.503906 0.921875 0.410156 0.921875 0.328125 0.921875 C 0.253906 0.929688 0.207031 0.941406 0.1875 0.953125 Z M 1.078125 -0.171875 C 1.265625 -0.171875 1.40625 -0.226562 1.5 -0.34375 C 1.601562 -0.46875 1.65625 -0.640625 1.65625 -0.859375 C 1.65625 -0.984375 1.628906 -1.097656 1.578125 -1.203125 C 1.535156 -1.316406 1.472656 -1.40625 1.390625 -1.46875 C 1.316406 -1.539062 1.226562 -1.578125 1.125 -1.578125 C 1.070312 -1.578125 1.003906 -1.554688 0.921875 -1.515625 C 0.847656 -1.484375 0.78125 -1.4375 0.71875 -1.375 C 0.695312 -1.03125 0.6875 -0.65625 0.6875 -0.25 C 0.738281 -0.226562 0.800781 -0.207031 0.875 -0.1875 C 0.945312 -0.175781 1.015625 -0.171875 1.078125 -0.171875 Z M 1.078125 -0.171875 "/>
            </g>
        </g>
        <g style="fill:rgb(100%,100%,100%);fill-opacity:1;">
            <g transform="translate(20.333795, 16.824972)">
                <path style="stroke:none;"
                      d="M 0.828125 0.046875 C 0.640625 0.046875 0.507812 0.0078125 0.4375 -0.0625 C 0.363281 -0.132812 0.328125 -0.257812 0.328125 -0.4375 L 0.328125 -1.421875 C 0.328125 -1.492188 0.3125 -1.539062 0.28125 -1.5625 C 0.25 -1.59375 0.1875 -1.613281 0.09375 -1.625 L 0.078125 -1.640625 L 0.109375 -1.765625 C 0.179688 -1.796875 0.253906 -1.835938 0.328125 -1.890625 C 0.398438 -1.953125 0.457031 -2.003906 0.5 -2.046875 C 0.550781 -2.085938 0.582031 -2.113281 0.59375 -2.125 L 0.6875 -2.09375 C 0.675781 -2.082031 0.664062 -2.050781 0.65625 -2 C 0.65625 -1.945312 0.648438 -1.878906 0.640625 -1.796875 L 1.234375 -1.8125 L 1.25 -1.796875 L 1.21875 -1.578125 L 0.625 -1.59375 C 0.613281 -1.300781 0.609375 -0.96875 0.609375 -0.59375 C 0.609375 -0.457031 0.628906 -0.359375 0.671875 -0.296875 C 0.722656 -0.242188 0.804688 -0.21875 0.921875 -0.21875 C 0.953125 -0.21875 0.988281 -0.222656 1.03125 -0.234375 C 1.070312 -0.242188 1.101562 -0.253906 1.125 -0.265625 C 1.15625 -0.285156 1.175781 -0.296875 1.1875 -0.296875 L 1.234375 -0.1875 C 1.210938 -0.175781 1.175781 -0.148438 1.125 -0.109375 C 1.070312 -0.078125 1.015625 -0.0390625 0.953125 0 C 0.898438 0.03125 0.859375 0.046875 0.828125 0.046875 Z M 0.828125 0.046875 "/>
            </g>
        </g>
        <g style="fill:rgb(100%,100%,100%);fill-opacity:1;">
            <g transform="translate(21.653794, 16.824972)">
                <path style="stroke:none;"
                      d="M 0.1875 -0.109375 C 0.269531 -0.128906 0.328125 -0.160156 0.359375 -0.203125 C 0.398438 -0.242188 0.421875 -0.300781 0.421875 -0.375 L 0.421875 -1.390625 C 0.421875 -1.535156 0.367188 -1.609375 0.265625 -1.609375 C 0.242188 -1.609375 0.222656 -1.601562 0.203125 -1.59375 C 0.179688 -1.59375 0.171875 -1.59375 0.171875 -1.59375 L 0.1875 -1.734375 C 0.300781 -1.753906 0.414062 -1.773438 0.53125 -1.796875 C 0.644531 -1.828125 0.722656 -1.847656 0.765625 -1.859375 L 0.78125 -1.8125 C 0.757812 -1.75 0.738281 -1.570312 0.71875 -1.28125 C 0.695312 -1 0.6875 -0.703125 0.6875 -0.390625 C 0.6875 -0.316406 0.695312 -0.257812 0.71875 -0.21875 C 0.738281 -0.1875 0.773438 -0.171875 0.828125 -0.171875 C 0.859375 -0.171875 0.882812 -0.171875 0.90625 -0.171875 C 0.9375 -0.171875 0.957031 -0.171875 0.96875 -0.171875 L 0.96875 -0.15625 L 0.9375 0.015625 C 0.914062 0.015625 0.867188 0.0078125 0.796875 0 C 0.734375 0 0.664062 0 0.59375 0 C 0.519531 0 0.4375 0.00390625 0.34375 0.015625 C 0.257812 0.0351562 0.203125 0.046875 0.171875 0.046875 Z M 0.53125 -2.328125 C 0.46875 -2.328125 0.414062 -2.347656 0.375 -2.390625 C 0.34375 -2.429688 0.328125 -2.476562 0.328125 -2.53125 C 0.328125 -2.59375 0.347656 -2.644531 0.390625 -2.6875 C 0.441406 -2.738281 0.5 -2.765625 0.5625 -2.765625 C 0.625 -2.765625 0.671875 -2.742188 0.703125 -2.703125 C 0.742188 -2.660156 0.765625 -2.613281 0.765625 -2.5625 C 0.765625 -2.5 0.738281 -2.441406 0.6875 -2.390625 C 0.644531 -2.347656 0.59375 -2.328125 0.53125 -2.328125 Z M 0.53125 -2.328125 "/>
            </g>
        </g>
        <g style="fill:rgb(100%,100%,100%);fill-opacity:1;">
            <g transform="translate(22.781793, 16.824972)">
                <path style="stroke:none;"
                      d="M 0.921875 0.046875 C 0.765625 0.046875 0.628906 0.0078125 0.515625 -0.0625 C 0.398438 -0.132812 0.304688 -0.238281 0.234375 -0.375 C 0.171875 -0.507812 0.140625 -0.664062 0.140625 -0.84375 C 0.140625 -1.03125 0.179688 -1.203125 0.265625 -1.359375 C 0.347656 -1.515625 0.457031 -1.632812 0.59375 -1.71875 C 0.738281 -1.8125 0.898438 -1.859375 1.078125 -1.859375 C 1.222656 -1.859375 1.351562 -1.816406 1.46875 -1.734375 C 1.59375 -1.660156 1.6875 -1.554688 1.75 -1.421875 C 1.8125 -1.296875 1.84375 -1.144531 1.84375 -0.96875 C 1.84375 -0.78125 1.800781 -0.609375 1.71875 -0.453125 C 1.644531 -0.296875 1.535156 -0.171875 1.390625 -0.078125 C 1.253906 0.00390625 1.097656 0.046875 0.921875 0.046875 Z M 1.03125 -0.140625 C 1.175781 -0.140625 1.289062 -0.203125 1.375 -0.328125 C 1.46875 -0.453125 1.515625 -0.617188 1.515625 -0.828125 C 1.515625 -0.984375 1.488281 -1.125 1.4375 -1.25 C 1.394531 -1.375 1.328125 -1.46875 1.234375 -1.53125 C 1.148438 -1.601562 1.054688 -1.640625 0.953125 -1.640625 C 0.804688 -1.640625 0.6875 -1.578125 0.59375 -1.453125 C 0.507812 -1.328125 0.46875 -1.160156 0.46875 -0.953125 C 0.46875 -0.796875 0.488281 -0.65625 0.53125 -0.53125 C 0.582031 -0.414062 0.648438 -0.320312 0.734375 -0.25 C 0.816406 -0.175781 0.914062 -0.140625 1.03125 -0.140625 Z M 1.03125 -0.140625 "/>
            </g>
        </g>
        <g style="fill:rgb(100%,100%,100%);fill-opacity:1;">
            <g transform="translate(24.773795, 16.824972)">
                <path style="stroke:none;"
                      d="M 1.3125 -0.109375 C 1.382812 -0.128906 1.4375 -0.160156 1.46875 -0.203125 C 1.507812 -0.242188 1.53125 -0.300781 1.53125 -0.375 L 1.546875 -1.171875 C 1.546875 -1.304688 1.515625 -1.40625 1.453125 -1.46875 C 1.398438 -1.539062 1.320312 -1.578125 1.21875 -1.578125 C 1.132812 -1.578125 1.046875 -1.554688 0.953125 -1.515625 C 0.867188 -1.472656 0.789062 -1.425781 0.71875 -1.375 C 0.695312 -0.820312 0.6875 -0.492188 0.6875 -0.390625 C 0.6875 -0.304688 0.695312 -0.25 0.71875 -0.21875 C 0.738281 -0.1875 0.773438 -0.171875 0.828125 -0.171875 C 0.859375 -0.171875 0.882812 -0.171875 0.90625 -0.171875 C 0.9375 -0.171875 0.957031 -0.171875 0.96875 -0.171875 L 0.984375 -0.15625 L 0.9375 0.015625 C 0.914062 0.015625 0.867188 0.0078125 0.796875 0 C 0.734375 0 0.660156 0 0.578125 0 C 0.503906 0 0.425781 0 0.34375 0 C 0.257812 0.0078125 0.207031 0.0195312 0.1875 0.03125 L 0.203125 -0.140625 C 0.273438 -0.148438 0.328125 -0.171875 0.359375 -0.203125 C 0.398438 -0.242188 0.421875 -0.300781 0.421875 -0.375 L 0.421875 -1.359375 C 0.421875 -1.441406 0.40625 -1.5 0.375 -1.53125 C 0.34375 -1.570312 0.289062 -1.59375 0.21875 -1.59375 L 0.171875 -1.59375 L 0.15625 -1.609375 L 0.171875 -1.75 C 0.285156 -1.757812 0.398438 -1.773438 0.515625 -1.796875 C 0.628906 -1.828125 0.703125 -1.847656 0.734375 -1.859375 L 0.765625 -1.828125 C 0.753906 -1.804688 0.742188 -1.769531 0.734375 -1.71875 C 0.722656 -1.664062 0.71875 -1.613281 0.71875 -1.5625 L 0.71875 -1.546875 C 1.03125 -1.753906 1.226562 -1.859375 1.3125 -1.859375 C 1.476562 -1.859375 1.609375 -1.8125 1.703125 -1.71875 C 1.804688 -1.625 1.859375 -1.5 1.859375 -1.34375 C 1.859375 -1.3125 1.851562 -1.1875 1.84375 -0.96875 C 1.8125 -0.695312 1.796875 -0.503906 1.796875 -0.390625 C 1.796875 -0.316406 1.804688 -0.257812 1.828125 -0.21875 C 1.859375 -0.1875 1.894531 -0.171875 1.9375 -0.171875 C 1.96875 -0.171875 1.992188 -0.171875 2.015625 -0.171875 C 2.046875 -0.171875 2.066406 -0.171875 2.078125 -0.171875 L 2.09375 -0.15625 L 2.0625 0.015625 C 2.039062 0.015625 1.992188 0.0078125 1.921875 0 C 1.859375 0 1.785156 0 1.703125 0 C 1.628906 0 1.546875 0.00390625 1.453125 0.015625 C 1.367188 0.0351562 1.316406 0.046875 1.296875 0.046875 Z M 1.3125 -0.109375 "/>
            </g>
        </g>
        <g style="fill:rgb(100%,100%,100%);fill-opacity:1;">
            <g transform="translate(7.199219, 22.475002)">
                <path style="stroke:none;"
                      d="M 0.40625 -0.109375 C 0.5 -0.117188 0.5625 -0.132812 0.59375 -0.15625 C 0.632812 -0.175781 0.660156 -0.207031 0.671875 -0.25 C 0.691406 -0.289062 0.703125 -0.367188 0.703125 -0.484375 L 0.703125 -1.796875 C 0.523438 -1.785156 0.40625 -1.773438 0.34375 -1.765625 C 0.289062 -1.753906 0.25 -1.722656 0.21875 -1.671875 C 0.195312 -1.628906 0.179688 -1.546875 0.171875 -1.421875 L 0.03125 -1.40625 C 0.0507812 -1.59375 0.0664062 -1.765625 0.078125 -1.921875 L 0.09375 -1.953125 L 0.34375 -1.90625 L 1.28125 -1.90625 L 1.53125 -1.953125 L 1.5625 -1.921875 C 1.5625 -1.753906 1.578125 -1.585938 1.609375 -1.421875 L 1.46875 -1.40625 C 1.445312 -1.539062 1.421875 -1.628906 1.390625 -1.671875 C 1.367188 -1.710938 1.332031 -1.738281 1.28125 -1.75 C 1.226562 -1.769531 1.117188 -1.785156 0.953125 -1.796875 C 0.941406 -1.671875 0.929688 -1.457031 0.921875 -1.15625 C 0.910156 -0.851562 0.90625 -0.582031 0.90625 -0.34375 C 0.90625 -0.257812 0.914062 -0.203125 0.9375 -0.171875 C 0.96875 -0.140625 1.015625 -0.125 1.078125 -0.125 C 1.140625 -0.125 1.195312 -0.128906 1.25 -0.140625 L 1.25 -0.125 L 1.234375 0.015625 L 1.125 0 L 0.78125 0 C 0.675781 0 0.539062 0.00390625 0.375 0.015625 Z M 0.40625 -0.109375 "/>
            </g>
        </g>
        <g style="fill:rgb(100%,100%,100%);fill-opacity:1;">
            <g transform="translate(8.83723, 22.475002)">
                <path style="stroke:none;"
                      d="M 0.140625 -0.09375 C 0.203125 -0.101562 0.242188 -0.125 0.265625 -0.15625 C 0.296875 -0.1875 0.3125 -0.226562 0.3125 -0.28125 L 0.3125 -1.046875 C 0.3125 -1.148438 0.273438 -1.203125 0.203125 -1.203125 C 0.191406 -1.203125 0.175781 -1.203125 0.15625 -1.203125 C 0.132812 -1.203125 0.125 -1.195312 0.125 -1.1875 L 0.140625 -1.3125 C 0.222656 -1.320312 0.304688 -1.335938 0.390625 -1.359375 C 0.484375 -1.378906 0.539062 -1.390625 0.5625 -1.390625 L 0.578125 -1.359375 C 0.566406 -1.316406 0.550781 -1.1875 0.53125 -0.96875 C 0.519531 -0.75 0.515625 -0.523438 0.515625 -0.296875 C 0.515625 -0.234375 0.519531 -0.1875 0.53125 -0.15625 C 0.550781 -0.132812 0.582031 -0.125 0.625 -0.125 C 0.644531 -0.125 0.664062 -0.125 0.6875 -0.125 C 0.707031 -0.125 0.71875 -0.125 0.71875 -0.125 L 0.734375 -0.125 L 0.703125 0.015625 C 0.691406 0.00390625 0.660156 0 0.609375 0 C 0.554688 0 0.5 0 0.4375 0 C 0.382812 0 0.320312 0.00390625 0.25 0.015625 C 0.1875 0.0234375 0.144531 0.03125 0.125 0.03125 Z M 0.40625 -1.75 C 0.351562 -1.75 0.3125 -1.765625 0.28125 -1.796875 C 0.257812 -1.828125 0.25 -1.863281 0.25 -1.90625 C 0.25 -1.945312 0.265625 -1.984375 0.296875 -2.015625 C 0.335938 -2.054688 0.382812 -2.078125 0.4375 -2.078125 C 0.476562 -2.078125 0.507812 -2.0625 0.53125 -2.03125 C 0.5625 -2 0.578125 -1.960938 0.578125 -1.921875 C 0.578125 -1.867188 0.5625 -1.828125 0.53125 -1.796875 C 0.5 -1.765625 0.457031 -1.75 0.40625 -1.75 Z M 0.40625 -1.75 "/>
            </g>
        </g>
        <g style="fill:rgb(100%,100%,100%);fill-opacity:1;">
            <g transform="translate(9.683235, 22.475002)">
                <path style="stroke:none;"
                      d="M 0.96875 -0.09375 C 1.03125 -0.101562 1.070312 -0.125 1.09375 -0.15625 C 1.125 -0.1875 1.140625 -0.226562 1.140625 -0.28125 L 1.15625 -0.875 C 1.15625 -0.976562 1.132812 -1.054688 1.09375 -1.109375 C 1.050781 -1.160156 0.988281 -1.1875 0.90625 -1.1875 C 0.84375 -1.1875 0.773438 -1.171875 0.703125 -1.140625 C 0.640625 -1.109375 0.582031 -1.070312 0.53125 -1.03125 C 0.519531 -0.613281 0.515625 -0.367188 0.515625 -0.296875 C 0.515625 -0.234375 0.519531 -0.1875 0.53125 -0.15625 C 0.550781 -0.132812 0.582031 -0.125 0.625 -0.125 C 0.644531 -0.125 0.664062 -0.125 0.6875 -0.125 C 0.707031 -0.125 0.71875 -0.125 0.71875 -0.125 L 0.734375 -0.125 L 0.703125 0.015625 C 0.679688 0.00390625 0.644531 0 0.59375 0 C 0.539062 0 0.484375 0 0.421875 0 C 0.359375 0 0.296875 0 0.234375 0 C 0.179688 0 0.144531 0 0.125 0 L 0.15625 -0.109375 C 0.207031 -0.117188 0.242188 -0.132812 0.265625 -0.15625 C 0.296875 -0.1875 0.3125 -0.226562 0.3125 -0.28125 L 0.3125 -1.015625 C 0.3125 -1.078125 0.296875 -1.125 0.265625 -1.15625 C 0.242188 -1.1875 0.207031 -1.203125 0.15625 -1.203125 L 0.109375 -1.203125 L 0.125 -1.3125 C 0.207031 -1.320312 0.289062 -1.335938 0.375 -1.359375 C 0.46875 -1.378906 0.523438 -1.390625 0.546875 -1.390625 L 0.5625 -1.375 C 0.5625 -1.363281 0.554688 -1.335938 0.546875 -1.296875 C 0.535156 -1.253906 0.53125 -1.210938 0.53125 -1.171875 L 0.53125 -1.15625 C 0.757812 -1.3125 0.910156 -1.390625 0.984375 -1.390625 C 1.078125 -1.390625 1.15625 -1.367188 1.21875 -1.328125 C 1.28125 -1.285156 1.328125 -1.226562 1.359375 -1.15625 C 1.429688 -1.207031 1.507812 -1.257812 1.59375 -1.3125 C 1.6875 -1.363281 1.757812 -1.390625 1.8125 -1.390625 C 1.9375 -1.390625 2.035156 -1.351562 2.109375 -1.28125 C 2.179688 -1.21875 2.21875 -1.125 2.21875 -1 C 2.21875 -0.976562 2.210938 -0.890625 2.203125 -0.734375 C 2.191406 -0.523438 2.1875 -0.378906 2.1875 -0.296875 C 2.1875 -0.234375 2.191406 -0.1875 2.203125 -0.15625 C 2.222656 -0.132812 2.253906 -0.125 2.296875 -0.125 C 2.316406 -0.125 2.335938 -0.125 2.359375 -0.125 C 2.378906 -0.125 2.390625 -0.125 2.390625 -0.125 L 2.40625 -0.125 L 2.375 0.015625 C 2.351562 0.00390625 2.316406 0 2.265625 0 C 2.210938 0 2.160156 0 2.109375 0 C 2.054688 0 2 0 1.9375 0 C 1.875 0.0078125 1.832031 0.015625 1.8125 0.015625 L 1.828125 -0.109375 C 1.878906 -0.117188 1.914062 -0.132812 1.9375 -0.15625 C 1.96875 -0.1875 1.984375 -0.226562 1.984375 -0.28125 L 1.984375 -0.875 C 1.984375 -0.976562 1.960938 -1.054688 1.921875 -1.109375 C 1.878906 -1.160156 1.820312 -1.1875 1.75 -1.1875 C 1.644531 -1.1875 1.519531 -1.132812 1.375 -1.03125 L 1.34375 -0.296875 C 1.34375 -0.234375 1.347656 -0.1875 1.359375 -0.15625 C 1.378906 -0.132812 1.410156 -0.125 1.453125 -0.125 C 1.472656 -0.125 1.492188 -0.125 1.515625 -0.125 C 1.535156 -0.125 1.550781 -0.125 1.5625 -0.125 L 1.53125 0.015625 C 1.519531 0.00390625 1.488281 0 1.4375 0 C 1.382812 0 1.328125 0 1.265625 0 C 1.210938 0 1.15625 0.00390625 1.09375 0.015625 C 1.03125 0.0234375 0.988281 0.03125 0.96875 0.03125 Z M 0.96875 -0.09375 "/>
            </g>
        </g>
        <g style="fill:rgb(100%,100%,100%);fill-opacity:1;">
            <g transform="translate(12.179252, 22.475002)">
                <path style="stroke:none;"
                      d="M 0.734375 0.03125 C 0.609375 0.03125 0.5 0.00390625 0.40625 -0.046875 C 0.3125 -0.0976562 0.238281 -0.175781 0.1875 -0.28125 C 0.132812 -0.382812 0.109375 -0.5 0.109375 -0.625 C 0.109375 -0.757812 0.140625 -0.882812 0.203125 -1 C 0.265625 -1.125 0.34375 -1.21875 0.4375 -1.28125 C 0.539062 -1.351562 0.648438 -1.390625 0.765625 -1.390625 C 0.910156 -1.390625 1.019531 -1.351562 1.09375 -1.28125 C 1.175781 -1.207031 1.21875 -1.097656 1.21875 -0.953125 C 1.21875 -0.898438 1.210938 -0.851562 1.203125 -0.8125 L 1.15625 -0.78125 L 0.328125 -0.78125 C 0.328125 -0.582031 0.363281 -0.429688 0.4375 -0.328125 C 0.519531 -0.222656 0.632812 -0.171875 0.78125 -0.171875 C 0.894531 -0.171875 1.015625 -0.203125 1.140625 -0.265625 L 1.15625 -0.25 L 1.203125 -0.171875 C 1.128906 -0.117188 1.046875 -0.0703125 0.953125 -0.03125 C 0.867188 0.0078125 0.796875 0.03125 0.734375 0.03125 Z M 0.890625 -0.90625 C 0.921875 -0.914062 0.941406 -0.925781 0.953125 -0.9375 C 0.960938 -0.945312 0.96875 -0.96875 0.96875 -1 C 0.96875 -1.070312 0.941406 -1.128906 0.890625 -1.171875 C 0.847656 -1.210938 0.789062 -1.234375 0.71875 -1.234375 C 0.625 -1.234375 0.539062 -1.203125 0.46875 -1.140625 C 0.40625 -1.078125 0.363281 -0.992188 0.34375 -0.890625 Z M 0.890625 -0.90625 "/>
            </g>
        </g>
        <g style="fill:rgb(100%,100%,100%);fill-opacity:1;">
            <g transform="translate(13.523262, 22.475002)">
                <path style="stroke:none;" d=""/>
            </g>
        </g>
        <g style="fill:rgb(100%,100%,100%);fill-opacity:1;">
            <g transform="translate(14.117267, 22.475002)">
                <path style="stroke:none;"
                      d="M 0.4375 0.03125 C 0.375 0.03125 0.328125 0.015625 0.296875 -0.015625 C 0.273438 -0.046875 0.265625 -0.0859375 0.265625 -0.140625 C 0.265625 -0.191406 0.28125 -0.234375 0.3125 -0.265625 C 0.34375 -0.304688 0.390625 -0.328125 0.453125 -0.328125 C 0.503906 -0.328125 0.546875 -0.304688 0.578125 -0.265625 C 0.609375 -0.234375 0.625 -0.195312 0.625 -0.15625 C 0.625 -0.101562 0.601562 -0.0546875 0.5625 -0.015625 C 0.53125 0.015625 0.488281 0.03125 0.4375 0.03125 Z M 0.453125 -0.96875 C 0.390625 -0.96875 0.34375 -0.984375 0.3125 -1.015625 C 0.289062 -1.046875 0.28125 -1.085938 0.28125 -1.140625 C 0.28125 -1.191406 0.296875 -1.234375 0.328125 -1.265625 C 0.359375 -1.304688 0.40625 -1.328125 0.46875 -1.328125 C 0.519531 -1.328125 0.5625 -1.304688 0.59375 -1.265625 C 0.625 -1.234375 0.640625 -1.195312 0.640625 -1.15625 C 0.640625 -1.101562 0.617188 -1.054688 0.578125 -1.015625 C 0.546875 -0.984375 0.503906 -0.96875 0.453125 -0.96875 Z M 0.453125 -0.96875 "/>
            </g>
        </g>
        <g style="fill:rgb(100%,100%,100%);fill-opacity:1;">
            <g transform="translate(14.831272, 22.475002)">
                <path style="stroke:none;" d=""/>
            </g>
        </g>
        <g style="fill:rgb(100%,100%,100%);fill-opacity:1;">
            <g transform="translate(15.425277, 22.475002)">
                <path style="stroke:none;"
                      d="M 0.234375 0.3125 C 0.171875 0.3125 0.125 0.296875 0.09375 0.265625 C 0.0625 0.234375 0.046875 0.175781 0.046875 0.09375 L 0.0625 0.078125 C 0.144531 0.0976562 0.226562 0.109375 0.3125 0.109375 C 0.414062 0.109375 0.507812 0.0859375 0.59375 0.046875 C 0.675781 0.015625 0.738281 -0.0234375 0.78125 -0.078125 C 0.832031 -0.140625 0.859375 -0.210938 0.859375 -0.296875 C 0.859375 -0.359375 0.835938 -0.410156 0.796875 -0.453125 C 0.765625 -0.503906 0.703125 -0.546875 0.609375 -0.578125 C 0.515625 -0.609375 0.390625 -0.640625 0.234375 -0.671875 L 0.203125 -0.703125 C 0.222656 -0.847656 0.238281 -0.992188 0.25 -1.140625 C 0.257812 -1.296875 0.265625 -1.394531 0.265625 -1.4375 L 0.28125 -1.46875 L 0.859375 -1.484375 C 0.910156 -1.484375 0.945312 -1.488281 0.96875 -1.5 C 1 -1.519531 1.023438 -1.554688 1.046875 -1.609375 L 1.140625 -1.609375 L 1.0625 -1.265625 L 1.046875 -1.234375 C 1.015625 -1.242188 0.929688 -1.25 0.796875 -1.25 C 0.671875 -1.257812 0.535156 -1.265625 0.390625 -1.265625 L 0.375 -0.890625 C 0.601562 -0.835938 0.78125 -0.769531 0.90625 -0.6875 C 1.03125 -0.613281 1.09375 -0.515625 1.09375 -0.390625 C 1.09375 -0.265625 1.046875 -0.148438 0.953125 -0.046875 C 0.867188 0.0546875 0.757812 0.140625 0.625 0.203125 C 0.488281 0.273438 0.359375 0.3125 0.234375 0.3125 Z M 0.234375 0.3125 "/>
            </g>
        </g>
        <g style="fill:rgb(100%,100%,100%);fill-opacity:1;">
            <g transform="translate(16.715286, 22.475002)">
                <path style="stroke:none;"
                      d="M 0.453125 0.03125 C 0.390625 0.03125 0.34375 0.015625 0.3125 -0.015625 C 0.289062 -0.046875 0.28125 -0.0859375 0.28125 -0.140625 C 0.28125 -0.191406 0.296875 -0.234375 0.328125 -0.265625 C 0.359375 -0.304688 0.40625 -0.328125 0.46875 -0.328125 C 0.519531 -0.328125 0.5625 -0.304688 0.59375 -0.265625 C 0.625 -0.234375 0.640625 -0.195312 0.640625 -0.15625 C 0.640625 -0.101562 0.617188 -0.0546875 0.578125 -0.015625 C 0.546875 0.015625 0.503906 0.03125 0.453125 0.03125 Z M 0.453125 0.03125 "/>
            </g>
        </g>
        <g style="fill:rgb(100%,100%,100%);fill-opacity:1;">
            <g transform="translate(17.63029, 22.475002)">
                <path style="stroke:none;"
                      d="M 0.265625 0.3125 C 0.191406 0.3125 0.140625 0.296875 0.109375 0.265625 C 0.0859375 0.234375 0.0703125 0.175781 0.0625 0.09375 L 0.078125 0.078125 C 0.160156 0.0976562 0.242188 0.109375 0.328125 0.109375 C 0.421875 0.109375 0.507812 0.0859375 0.59375 0.046875 C 0.675781 0.015625 0.738281 -0.03125 0.78125 -0.09375 C 0.832031 -0.15625 0.859375 -0.222656 0.859375 -0.296875 C 0.859375 -0.398438 0.8125 -0.472656 0.71875 -0.515625 C 0.632812 -0.566406 0.5 -0.59375 0.3125 -0.59375 L 0.296875 -0.609375 L 0.28125 -0.71875 L 0.484375 -0.765625 C 0.566406 -0.804688 0.628906 -0.859375 0.671875 -0.921875 C 0.722656 -0.984375 0.75 -1.046875 0.75 -1.109375 C 0.75 -1.171875 0.726562 -1.222656 0.6875 -1.265625 C 0.644531 -1.304688 0.585938 -1.328125 0.515625 -1.328125 C 0.460938 -1.328125 0.40625 -1.3125 0.34375 -1.28125 C 0.28125 -1.25 0.226562 -1.210938 0.1875 -1.171875 L 0.15625 -1.171875 L 0.125 -1.296875 C 0.125 -1.296875 0.148438 -1.316406 0.203125 -1.359375 C 0.265625 -1.398438 0.332031 -1.4375 0.40625 -1.46875 C 0.476562 -1.5 0.546875 -1.515625 0.609375 -1.515625 C 0.734375 -1.515625 0.828125 -1.484375 0.890625 -1.421875 C 0.960938 -1.359375 1 -1.273438 1 -1.171875 C 1 -1.097656 0.96875 -1.019531 0.90625 -0.9375 C 0.851562 -0.863281 0.773438 -0.800781 0.671875 -0.75 L 0.671875 -0.734375 C 0.941406 -0.671875 1.078125 -0.546875 1.078125 -0.359375 C 1.078125 -0.253906 1.035156 -0.148438 0.953125 -0.046875 C 0.867188 0.0546875 0.765625 0.140625 0.640625 0.203125 C 0.515625 0.273438 0.390625 0.3125 0.265625 0.3125 Z M 0.265625 0.3125 "/>
            </g>
        </g>
        <g style="fill:rgb(100%,100%,100%);fill-opacity:1;">
            <g transform="translate(18.878299, 22.475002)">
                <path style="stroke:none;"
                      d="M 0.765625 0.03125 C 0.628906 0.03125 0.515625 0 0.421875 -0.0625 C 0.328125 -0.125 0.25 -0.207031 0.1875 -0.3125 C 0.132812 -0.425781 0.109375 -0.554688 0.109375 -0.703125 C 0.109375 -0.859375 0.140625 -1 0.203125 -1.125 C 0.265625 -1.25 0.351562 -1.34375 0.46875 -1.40625 C 0.582031 -1.476562 0.707031 -1.515625 0.84375 -1.515625 C 0.96875 -1.515625 1.078125 -1.484375 1.171875 -1.421875 C 1.273438 -1.359375 1.351562 -1.269531 1.40625 -1.15625 C 1.457031 -1.050781 1.484375 -0.925781 1.484375 -0.78125 C 1.484375 -0.632812 1.453125 -0.492188 1.390625 -0.359375 C 1.328125 -0.234375 1.238281 -0.132812 1.125 -0.0625 C 1.019531 0 0.898438 0.03125 0.765625 0.03125 Z M 0.8125 -0.1875 C 0.957031 -0.1875 1.078125 -0.234375 1.171875 -0.328125 C 1.265625 -0.429688 1.3125 -0.554688 1.3125 -0.703125 C 1.3125 -0.816406 1.285156 -0.914062 1.234375 -1 C 1.191406 -1.082031 1.128906 -1.144531 1.046875 -1.1875 C 0.972656 -1.238281 0.882812 -1.265625 0.78125 -1.265625 C 0.632812 -1.265625 0.515625 -1.21875 0.421875 -1.125 C 0.328125 -1.03125 0.28125 -0.90625 0.28125 -0.75 C 0.28125 -0.644531 0.300781 -0.546875 0.34375 -0.453125 C 0.394531 -0.367188 0.457031 -0.300781 0.53125 -0.25 C 0.613281 -0.207031 0.707031 -0.1875 0.8125 -0.1875 Z M 0.8125 -0.1875 "/>
            </g>
        </g>
        <g style="fill:rgb(100%,100%,100%);fill-opacity:1;">
            <g transform="translate(20.477309, 22.475002)">
                <path style="stroke:none;" d=""/>
            </g>
        </g>
        <g style="fill:rgb(100%,100%,100%);fill-opacity:1;">
            <g transform="translate(21.071315, 22.475002)">
                <path style="stroke:none;"
                      d="M 0.625 0.03125 C 0.476562 0.03125 0.378906 0.00390625 0.328125 -0.046875 C 0.273438 -0.0976562 0.25 -0.191406 0.25 -0.328125 L 0.25 -1.0625 C 0.25 -1.113281 0.234375 -1.148438 0.203125 -1.171875 C 0.179688 -1.203125 0.140625 -1.21875 0.078125 -1.21875 L 0.0625 -1.234375 L 0.078125 -1.328125 C 0.140625 -1.347656 0.195312 -1.378906 0.25 -1.421875 C 0.300781 -1.460938 0.34375 -1.5 0.375 -1.53125 C 0.414062 -1.5625 0.441406 -1.582031 0.453125 -1.59375 L 0.515625 -1.578125 C 0.503906 -1.566406 0.5 -1.539062 0.5 -1.5 C 0.5 -1.457031 0.492188 -1.40625 0.484375 -1.34375 L 0.921875 -1.359375 L 0.9375 -1.34375 L 0.90625 -1.1875 L 0.46875 -1.203125 C 0.457031 -0.972656 0.453125 -0.722656 0.453125 -0.453125 C 0.453125 -0.347656 0.46875 -0.273438 0.5 -0.234375 C 0.539062 -0.191406 0.601562 -0.171875 0.6875 -0.171875 C 0.71875 -0.171875 0.75 -0.171875 0.78125 -0.171875 C 0.8125 -0.179688 0.832031 -0.191406 0.84375 -0.203125 C 0.863281 -0.210938 0.878906 -0.21875 0.890625 -0.21875 L 0.921875 -0.140625 C 0.910156 -0.128906 0.882812 -0.109375 0.84375 -0.078125 C 0.800781 -0.0546875 0.757812 -0.03125 0.71875 0 C 0.675781 0.0195312 0.644531 0.03125 0.625 0.03125 Z M 0.625 0.03125 "/>
            </g>
        </g>
        <g style="fill:rgb(100%,100%,100%);fill-opacity:1;">
            <g transform="translate(22.06132, 22.475002)">
                <path style="stroke:none;"
                      d="M 0.6875 0.03125 C 0.570312 0.03125 0.46875 0.00390625 0.375 -0.046875 C 0.289062 -0.0976562 0.222656 -0.175781 0.171875 -0.28125 C 0.128906 -0.382812 0.109375 -0.5 0.109375 -0.625 C 0.109375 -0.769531 0.140625 -0.898438 0.203125 -1.015625 C 0.265625 -1.128906 0.347656 -1.21875 0.453125 -1.28125 C 0.554688 -1.351562 0.671875 -1.390625 0.796875 -1.390625 C 0.910156 -1.390625 1.007812 -1.359375 1.09375 -1.296875 C 1.1875 -1.242188 1.257812 -1.164062 1.3125 -1.0625 C 1.363281 -0.96875 1.390625 -0.851562 1.390625 -0.71875 C 1.390625 -0.582031 1.359375 -0.457031 1.296875 -0.34375 C 1.234375 -0.226562 1.148438 -0.132812 1.046875 -0.0625 C 0.941406 0 0.820312 0.03125 0.6875 0.03125 Z M 0.78125 -0.109375 C 0.882812 -0.109375 0.96875 -0.15625 1.03125 -0.25 C 1.101562 -0.34375 1.140625 -0.46875 1.140625 -0.625 C 1.140625 -0.738281 1.117188 -0.84375 1.078125 -0.9375 C 1.046875 -1.03125 1 -1.101562 0.9375 -1.15625 C 0.875 -1.207031 0.800781 -1.234375 0.71875 -1.234375 C 0.601562 -1.234375 0.507812 -1.1875 0.4375 -1.09375 C 0.375 -1 0.34375 -0.875 0.34375 -0.71875 C 0.34375 -0.601562 0.359375 -0.5 0.390625 -0.40625 C 0.429688 -0.3125 0.484375 -0.238281 0.546875 -0.1875 C 0.609375 -0.132812 0.6875 -0.109375 0.78125 -0.109375 Z M 0.78125 -0.109375 "/>
            </g>
        </g>
        <g style="fill:rgb(100%,100%,100%);fill-opacity:1;">
            <g transform="translate(23.555331, 22.475002)">
                <path style="stroke:none;" d=""/>
            </g>
        </g>
        <g style="fill:rgb(100%,100%,100%);fill-opacity:1;">
            <g transform="translate(24.149337, 22.475002)">
                <path style="stroke:none;"
                      d="M 0.703125 -1.515625 C 0.804688 -1.515625 0.898438 -1.488281 0.984375 -1.4375 C 1.066406 -1.382812 1.128906 -1.3125 1.171875 -1.21875 C 1.210938 -1.125 1.234375 -1.015625 1.234375 -0.890625 C 1.234375 -0.617188 1.144531 -0.375 0.96875 -0.15625 C 0.800781 0.0507812 0.5625 0.207031 0.25 0.3125 L 0.21875 0.296875 L 0.1875 0.203125 C 0.394531 0.117188 0.5625 0.0078125 0.6875 -0.125 C 0.820312 -0.269531 0.914062 -0.425781 0.96875 -0.59375 L 0.953125 -0.609375 C 0.878906 -0.554688 0.8125 -0.515625 0.75 -0.484375 C 0.6875 -0.460938 0.644531 -0.453125 0.625 -0.453125 C 0.53125 -0.453125 0.441406 -0.472656 0.359375 -0.515625 C 0.285156 -0.554688 0.222656 -0.613281 0.171875 -0.6875 C 0.128906 -0.757812 0.109375 -0.84375 0.109375 -0.9375 C 0.109375 -1.039062 0.132812 -1.132812 0.1875 -1.21875 C 0.238281 -1.3125 0.304688 -1.382812 0.390625 -1.4375 C 0.484375 -1.488281 0.585938 -1.515625 0.703125 -1.515625 Z M 0.6875 -0.625 C 0.738281 -0.625 0.789062 -0.632812 0.84375 -0.65625 C 0.90625 -0.675781 0.957031 -0.703125 1 -0.734375 C 1 -0.773438 1 -0.820312 1 -0.875 C 1 -1.019531 0.96875 -1.140625 0.90625 -1.234375 C 0.84375 -1.328125 0.753906 -1.375 0.640625 -1.375 C 0.546875 -1.375 0.46875 -1.335938 0.40625 -1.265625 C 0.351562 -1.203125 0.328125 -1.117188 0.328125 -1.015625 C 0.328125 -0.941406 0.34375 -0.875 0.375 -0.8125 C 0.40625 -0.757812 0.445312 -0.710938 0.5 -0.671875 C 0.5625 -0.640625 0.625 -0.625 0.6875 -0.625 Z M 0.6875 -0.625 "/>
            </g>
        </g>
        <g style="fill:rgb(100%,100%,100%);fill-opacity:1;">
            <g transform="translate(25.514346, 22.475002)">
                <path style="stroke:none;" d=""/>
            </g>
        </g>
        <g style="fill:rgb(100%,100%,100%);fill-opacity:1;">
            <g transform="translate(26.108352, 22.475002)">
                <path style="stroke:none;"
                      d="M 0.203125 -0.109375 C 0.296875 -0.128906 0.351562 -0.15625 0.375 -0.1875 C 0.40625 -0.21875 0.421875 -0.273438 0.421875 -0.359375 L 0.421875 -1.625 C 0.421875 -1.6875 0.414062 -1.726562 0.40625 -1.75 C 0.394531 -1.769531 0.363281 -1.78125 0.3125 -1.78125 C 0.289062 -1.78125 0.269531 -1.78125 0.25 -1.78125 C 0.238281 -1.78125 0.226562 -1.78125 0.21875 -1.78125 L 0.203125 -1.78125 L 0.234375 -1.921875 C 0.253906 -1.921875 0.296875 -1.914062 0.359375 -1.90625 C 0.429688 -1.90625 0.5 -1.90625 0.5625 -1.90625 C 0.625 -1.90625 0.691406 -1.90625 0.765625 -1.90625 C 0.847656 -1.914062 0.90625 -1.921875 0.9375 -1.921875 C 1.144531 -1.921875 1.300781 -1.875 1.40625 -1.78125 C 1.519531 -1.6875 1.578125 -1.554688 1.578125 -1.390625 C 1.578125 -1.273438 1.546875 -1.164062 1.484375 -1.0625 C 1.421875 -0.96875 1.335938 -0.890625 1.234375 -0.828125 C 1.128906 -0.765625 1.015625 -0.734375 0.890625 -0.734375 L 0.640625 -0.734375 L 0.640625 -0.4375 C 0.640625 -0.34375 0.640625 -0.273438 0.640625 -0.234375 C 0.648438 -0.191406 0.660156 -0.160156 0.671875 -0.140625 C 0.691406 -0.128906 0.722656 -0.125 0.765625 -0.125 C 0.804688 -0.125 0.84375 -0.125 0.875 -0.125 C 0.90625 -0.132812 0.925781 -0.140625 0.9375 -0.140625 L 0.9375 -0.125 L 0.90625 0.015625 C 0.882812 0.00390625 0.847656 0 0.796875 0 C 0.742188 0 0.691406 0 0.640625 0 C 0.554688 0 0.457031 0 0.34375 0 C 0.238281 0.0078125 0.1875 0.0195312 0.1875 0.03125 Z M 0.96875 -0.859375 C 1.09375 -0.878906 1.179688 -0.925781 1.234375 -1 C 1.296875 -1.082031 1.328125 -1.191406 1.328125 -1.328125 C 1.328125 -1.484375 1.28125 -1.597656 1.1875 -1.671875 C 1.101562 -1.742188 0.960938 -1.78125 0.765625 -1.78125 C 0.734375 -1.78125 0.710938 -1.773438 0.703125 -1.765625 C 0.691406 -1.765625 0.6875 -1.753906 0.6875 -1.734375 C 0.664062 -1.484375 0.65625 -1.207031 0.65625 -0.90625 Z M 0.96875 -0.859375 "/>
            </g>
        </g>
        <g style="fill:rgb(100%,100%,100%);fill-opacity:1;">
            <g transform="translate(27.761363, 22.475002)">
                <path style="stroke:none;"
                      d="M 0.609375 -1.5625 L 0.59375 -1.5625 C 0.582031 -1.425781 0.5625 -1.175781 0.53125 -0.8125 C 0.5 -0.445312 0.484375 -0.25 0.484375 -0.21875 C 0.484375 -0.15625 0.515625 -0.125 0.578125 -0.125 L 0.703125 -0.140625 L 0.71875 -0.125 L 0.6875 0.015625 C 0.664062 0.015625 0.625 0.0078125 0.5625 0 C 0.507812 0 0.453125 0 0.390625 0 C 0.347656 0 0.296875 0 0.234375 0 C 0.179688 0.0078125 0.148438 0.0195312 0.140625 0.03125 L 0.15625 -0.109375 C 0.21875 -0.117188 0.257812 -0.140625 0.28125 -0.171875 C 0.3125 -0.203125 0.332031 -0.257812 0.34375 -0.34375 C 0.363281 -0.53125 0.390625 -0.78125 0.421875 -1.09375 C 0.453125 -1.414062 0.46875 -1.597656 0.46875 -1.640625 C 0.46875 -1.691406 0.445312 -1.726562 0.40625 -1.75 C 0.363281 -1.78125 0.300781 -1.800781 0.21875 -1.8125 L 0.203125 -1.828125 L 0.234375 -1.921875 C 0.253906 -1.921875 0.300781 -1.914062 0.375 -1.90625 C 0.457031 -1.90625 0.519531 -1.90625 0.5625 -1.90625 C 0.59375 -1.90625 0.628906 -1.90625 0.671875 -1.90625 C 0.710938 -1.914062 0.742188 -1.921875 0.765625 -1.921875 C 0.835938 -1.660156 0.910156 -1.421875 0.984375 -1.203125 C 1.066406 -0.984375 1.128906 -0.804688 1.171875 -0.671875 C 1.222656 -0.546875 1.253906 -0.46875 1.265625 -0.4375 L 1.28125 -0.4375 C 1.3125 -0.507812 1.375 -0.679688 1.46875 -0.953125 C 1.570312 -1.234375 1.679688 -1.554688 1.796875 -1.921875 C 1.796875 -1.921875 1.828125 -1.914062 1.890625 -1.90625 L 2 -1.90625 C 2.039062 -1.90625 2.097656 -1.90625 2.171875 -1.90625 C 2.242188 -1.914062 2.296875 -1.921875 2.328125 -1.921875 L 2.3125 -1.8125 C 2.226562 -1.800781 2.164062 -1.78125 2.125 -1.75 C 2.09375 -1.726562 2.078125 -1.691406 2.078125 -1.640625 C 2.078125 -1.597656 2.085938 -1.429688 2.109375 -1.140625 C 2.128906 -0.859375 2.144531 -0.617188 2.15625 -0.421875 C 2.164062 -0.335938 2.175781 -0.273438 2.1875 -0.234375 C 2.195312 -0.191406 2.207031 -0.160156 2.21875 -0.140625 C 2.238281 -0.128906 2.265625 -0.125 2.296875 -0.125 C 2.316406 -0.125 2.332031 -0.125 2.34375 -0.125 C 2.363281 -0.132812 2.378906 -0.140625 2.390625 -0.140625 L 2.390625 -0.125 L 2.359375 0.015625 C 2.347656 0.00390625 2.3125 0 2.25 0 C 2.195312 0 2.140625 0 2.078125 0 C 2.023438 0 1.960938 0 1.890625 0 C 1.828125 0.0078125 1.785156 0.0195312 1.765625 0.03125 L 1.78125 -0.109375 C 1.84375 -0.117188 1.882812 -0.132812 1.90625 -0.15625 C 1.9375 -0.1875 1.953125 -0.222656 1.953125 -0.265625 C 1.953125 -0.304688 1.9375 -0.5 1.90625 -0.84375 C 1.882812 -1.195312 1.867188 -1.4375 1.859375 -1.5625 L 1.84375 -1.5625 L 1.265625 0.03125 L 1.1875 0.0625 Z M 0.609375 -1.5625 "/>
            </g>
        </g>
    </g>
</svg>